<svg width="28" height="28" viewBox="0 0 28 28" fill="none" xmlns="http://www.w3.org/2000/svg">
<path d="M22.6667 12.1875V8.25C22.6667 7.52513 22.0697 6.9375 21.3333 6.9375C20.597 6.9375 20 7.52513 20 8.25V12.1875H16C15.2636 12.1875 14.6667 12.7751 14.6667 13.5C14.6667 14.2249 15.2636 14.8125 16 14.8125H20V18.75C20 19.4749 20.597 20.0625 21.3333 20.0625C22.0697 20.0625 22.6667 19.4749 22.6667 18.75V14.8125H26.6667C27.403 14.8125 28 14.2249 28 13.5C28 12.7751 27.403 12.1875 26.6667 12.1875H22.6667Z" fill="current"/>
<path fill-rule="evenodd" clip-rule="evenodd" d="M2.66667 8.25C2.66667 11.2425 4.96 13.5 8 13.5C11.04 13.5 13.3333 11.2425 13.3333 8.25C13.3333 5.2575 11.04 3 8 3C4.96 3 2.66667 5.2575 2.66667 8.25ZM11.3333 8.25C11.3333 10.2188 10 11.5312 8 11.5312C6.42933 11.5312 4.66667 9.79612 4.66667 8.25C4.66667 6.70388 6 4.96875 8 4.96875C10 4.96875 11.3333 6.57315 11.3333 8.25Z" fill="current"/>
<path d="M2.66667 21.375C2.66667 19.2041 4.46133 17.4375 6.66667 17.4375H9.33333C11.5387 17.4375 13.3333 19.2041 13.3333 21.375V22.6875C13.3333 23.4124 13.9303 24 14.6667 24C15.403 24 16 23.4124 16 22.6875V21.375C16 17.7564 13.0093 14.8125 9.33333 14.8125H6.66667C2.99067 14.8125 0 17.7564 0 21.375V22.6875C0 23.4124 0.596954 24 1.33333 24C2.06971 24 2.66667 23.4124 2.66667 22.6875V21.375Z" fill="current"/>
</svg>
