<svg width="26" height="26" viewBox="0 0 26 26" fill="none" xmlns="http://www.w3.org/2000/svg">
<path d="M13.3952 26C11.6813 26 10.1903 24.7822 9.84802 23.1029L9.80557 22.8906H2.51495C2.31067 22.8906 2.12495 22.7686 2.04271 22.5802C1.96312 22.3918 2.00291 22.1743 2.14352 22.0257C4.39067 19.6831 5.62965 16.6029 5.62965 13.3555V10.8749C5.62965 7.48429 7.89536 4.42796 11.1427 3.44367L11.3311 3.38531V2.06673C11.3311 0.928571 12.257 0 13.3978 0C14.5386 0 15.4645 0.925918 15.4645 2.06673V3.38531L15.6529 3.44367C18.8976 4.43061 21.166 7.48694 21.166 10.8749V13.3555C21.166 16.6029 22.405 19.6804 24.6494 22.0257C24.7927 22.1743 24.8325 22.3918 24.7503 22.5802C24.6707 22.7686 24.485 22.8906 24.2807 22.8906H16.9901L16.9476 23.1029C16.6001 24.7822 15.109 26 13.3952 26ZM10.9464 23.2461C11.3125 24.2808 12.2968 24.9786 13.3952 24.9786C14.4909 24.9786 15.4752 24.2835 15.8439 23.2488L15.9686 22.8959H10.8217L10.9464 23.2461ZM13.3952 4.13347C9.67822 4.13347 6.65373 7.15796 6.65373 10.8749V13.3555C6.65373 16.3004 5.72781 19.0967 3.97679 21.442L3.66107 21.8665H23.1319L22.8162 21.442C21.0652 19.0941 20.1392 16.2978 20.1392 13.3555V10.8749C20.1366 7.15796 17.1121 4.13347 13.3952 4.13347ZM13.3952 1.02408C12.8194 1.02408 12.3525 1.49102 12.3525 2.06673V3.17306L12.6443 3.14388C12.8964 3.12 13.1484 3.10673 13.3952 3.10673C13.6419 3.10673 13.8966 3.12 14.146 3.14388L14.4378 3.17306V2.06673C14.4378 1.49102 13.9709 1.02408 13.3952 1.02408Z" fill="current"/>
<path d="M24.2777 11.3869C23.9965 11.3869 23.7657 11.1561 23.7657 10.8749C23.7657 8.10507 22.6859 5.49976 20.7279 3.5418C20.5289 3.34282 20.5289 3.0165 20.7279 2.81752C20.8234 2.72201 20.9534 2.66895 21.0887 2.66895C21.224 2.66895 21.354 2.72201 21.4522 2.82017C23.6038 4.9718 24.7897 7.83446 24.7897 10.8775C24.7897 11.1587 24.5589 11.3869 24.2777 11.3869Z" fill="current"/>
<path d="M2.51204 11.3869C2.23081 11.3869 2 11.1561 2 10.8749C2 7.8318 3.18592 4.9718 5.33755 2.81752C5.43306 2.72201 5.56306 2.66895 5.70102 2.66895C5.83633 2.66895 5.96633 2.72201 6.06184 2.81752C6.26082 3.0165 6.26082 3.34282 6.06184 3.5418C4.10388 5.49976 3.02408 8.10507 3.02408 10.8749C3.02408 11.1587 2.79592 11.3869 2.51204 11.3869Z" fill="current"/>
</svg>
