<svg width="30" height="30" viewBox="0 0 30 30" fill="none" xmlns="http://www.w3.org/2000/svg">
<path d="M29.8439 5.64732L24.3458 0.14509C24.2454 0.0558048 24.1227 0 23.9889 0H11.4983C10.673 0 10.0039 0.669643 9.99275 1.49554V4.52009C4.20471 4.78795 -0.256214 9.69866 0.0114411 15.4911C0.267944 20.904 4.58388 25.2232 9.99275 25.4799V28.5045C9.99275 29.3304 10.6619 30 11.4983 30H28.4944C29.3197 30 29.9888 29.3304 30 28.5045V6.00447C29.9888 5.87054 29.9442 5.74777 29.8439 5.64732ZM24.4908 1.70759L28.2825 5.50223H24.9926C24.7138 5.50223 24.4908 5.27902 24.4908 5V1.70759ZM0.992841 15.0112C1.00399 9.95536 4.95191 5.79241 9.99275 5.52455V14.8103L3.44635 21.3616C1.86272 19.6205 0.992841 17.3549 0.992841 15.0112ZM10.0262 24.4978C7.84036 24.3862 5.76603 23.5268 4.14895 22.0536L10.6954 15.5022H19.9741C19.7176 20.7366 15.2566 24.7656 10.0262 24.4978ZM28.9963 28.5156C28.9963 28.7946 28.7732 29.0179 28.4944 29.0179H11.4983C11.2195 29.0179 10.9965 28.7946 10.9965 28.5156V25.4911C16.5838 25.2232 20.9889 20.6138 21.0001 15.0112C21.0001 14.7321 20.777 14.5089 20.4982 14.5089H10.9965V1.49554C10.9965 1.21652 11.2195 0.993305 11.4983 0.993305H23.4982V5C23.4982 5.82589 24.1673 6.49553 24.9926 6.49553H28.9963V28.5156Z" fill="current"/>
<path d="M22.9962 13.0022C22.985 7.19866 18.2899 2.5 12.5019 2.5C12.223 2.5 12 2.72322 12 3.00223V13.0134C12 13.2924 12.223 13.5156 12.5019 13.5156H22.5055C22.7731 13.5045 22.9962 13.2813 22.9962 13.0022ZM12.9926 12.5112V3.52679C17.8438 3.78348 21.7137 7.66741 21.9813 12.5112H12.9926Z" fill="current"/>
<path d="M23.4983 19.0068C21.0113 19.0068 19.0039 21.0269 19.0039 23.5046C19.0039 25.9823 21.0225 28.0024 23.4983 28.0024C25.9741 28.0024 27.9927 25.9823 27.9927 23.5046C27.9927 21.0269 25.9741 19.018 23.4983 19.0068ZM25.4945 22.7234L22.8514 25.3684C22.6507 25.5582 22.3384 25.5582 22.1489 25.3684L21.0002 24.2189C20.8106 24.018 20.8106 23.7055 21.0002 23.5158C21.2009 23.3149 21.5132 23.3149 21.7028 23.5158L22.4946 24.3082L24.792 22.0091C24.9927 21.8082 25.305 21.8082 25.4945 22.0091C25.6841 22.21 25.6841 22.5225 25.4945 22.7234Z" fill="current"/>
<path d="M23.9888 9.00712C23.9888 9.28613 24.2118 9.50935 24.4906 9.50935H27.4906C27.7694 9.50935 27.9924 9.28613 27.9924 9.00712C27.9924 8.7281 27.7694 8.50488 27.4906 8.50488H24.4906C24.2118 8.50488 23.9888 8.7281 23.9888 9.00712Z" fill="current"/>
<path d="M27.4906 11.5068H24.4906C24.2118 11.5068 23.9888 11.7301 23.9888 12.0091C23.9888 12.2881 24.2118 12.5113 24.4906 12.5113H27.4906C27.7694 12.5113 27.9924 12.2881 27.9924 12.0091C27.9924 11.7301 27.7694 11.5068 27.4906 11.5068Z" fill="current"/>
<path d="M27.4906 14.5088H24.4906C24.2118 14.5088 23.9888 14.732 23.9888 15.011C23.9888 15.29 24.2118 15.5133 24.4906 15.5133H27.4906C27.7694 15.5133 27.9924 15.29 27.9924 15.011C27.9924 14.732 27.7694 14.5088 27.4906 14.5088Z" fill="current"/>
</svg>
