<svg width="25" height="28" viewBox="0 0 25 28" fill="none" xmlns="http://www.w3.org/2000/svg">
<path d="M14.8316 13.998L23.4316 3.99625C23.8082 3.55724 24.0198 2.96181 24.0198 2.34095C24.0198 1.72009 23.8082 1.12466 23.4316 0.685649C23.055 0.246635 22.5442 0 22.0116 0C21.479 0 20.9682 0.246635 20.5916 0.685649L12.0116 10.7107L3.4316 0.685649C3.05499 0.246635 2.5442 -4.62576e-09 2.0116 0C1.47899 4.62576e-09 0.968204 0.246635 0.591597 0.685649C0.214989 1.12466 0.0034132 1.72009 0.0034132 2.34095C0.0034132 2.96181 0.214989 3.55724 0.591597 3.99625L9.1916 13.998L0.591597 23.9998C0.40414 24.2165 0.255352 24.4744 0.153814 24.7585C0.052277 25.0426 0 25.3473 0 25.6551C0 25.9628 0.052277 26.2676 0.153814 26.5517C0.255352 26.8358 0.40414 27.0936 0.591597 27.3104C0.777523 27.5289 0.998725 27.7023 1.24244 27.8207C1.48616 27.9391 1.74757 28 2.0116 28C2.27562 28 2.53703 27.9391 2.78075 27.8207C3.02447 27.7023 3.24567 27.5289 3.4316 27.3104L12.0116 17.2853L20.5916 27.3104C20.7775 27.5289 20.9987 27.7023 21.2424 27.8207C21.4862 27.9391 21.7476 28 22.0116 28C22.2756 28 22.537 27.9391 22.7808 27.8207C23.0245 27.7023 23.2457 27.5289 23.4316 27.3104C23.6191 27.0936 23.7678 26.8358 23.8694 26.5517C23.9709 26.2676 24.0232 25.9628 24.0232 25.6551C24.0232 25.3473 23.9709 25.0426 23.8694 24.7585C23.7678 24.4744 23.6191 24.2165 23.4316 23.9998L14.8316 13.998Z" fill="#093254"/>
</svg>
