<svg width="30" height="30" viewBox="0 0 30 30" fill="none" xmlns="http://www.w3.org/2000/svg">
<path d="M11.6497 29.9988C11.3797 29.9988 11.1577 29.7799 11.1577 29.5071V26.0136L10.7677 25.8547C10.6177 25.7947 10.4706 25.7317 10.3206 25.6657L9.9306 25.4948L7.45545 27.9717C7.36245 28.0647 7.23945 28.1157 7.10744 28.1157C6.97543 28.1157 6.85242 28.0647 6.75942 27.9717L2.02512 23.2398C1.83311 23.0479 1.83311 22.736 2.02512 22.5471L4.50327 20.0702L4.32926 19.6774C4.26326 19.5304 4.20325 19.3835 4.14625 19.2366L3.99024 18.8407H0.492026C0.222009 18.8407 0 18.6218 0 18.349V11.6559C0 11.386 0.219009 11.1641 0.492026 11.1641H3.99024L4.14625 10.7683C4.20325 10.6213 4.26326 10.4744 4.32926 10.3275L4.50327 9.93464L2.02512 7.45773C1.93212 7.36477 1.88111 7.24182 1.88111 7.10988C1.88111 6.97794 1.93212 6.855 2.02512 6.76204L6.75942 2.02711C6.85242 1.93415 6.97543 1.88317 7.10744 1.88317C7.23945 1.88317 7.36245 1.93415 7.45545 2.02711L9.9306 4.50403L10.3206 4.3331C10.4706 4.26713 10.6177 4.20416 10.7677 4.14418L11.1607 3.98525V0.491784C11.1607 0.221903 11.3797 0 11.6527 0H18.3491C18.6191 0 18.8412 0.218904 18.8412 0.491784V3.98525L19.2312 4.14418C19.3812 4.20416 19.5282 4.26713 19.6782 4.3331L20.0682 4.50403L22.5434 2.02711C22.6364 1.93415 22.7594 1.88317 22.8914 1.88317C23.0234 1.88317 23.1464 1.93415 23.2394 2.02711L27.9737 6.75904C28.0667 6.852 28.1177 6.97494 28.1177 7.10689C28.1177 7.23883 28.0667 7.36177 27.9737 7.45473L25.4956 9.93165L25.6696 10.3245C25.7356 10.4714 25.7956 10.6183 25.8526 10.7653L26.0086 11.1611H29.5068C29.7768 11.1611 29.9988 11.38 29.9988 11.6529V18.346C29.9988 18.6158 29.7798 18.8377 29.5068 18.8377H26.0086L25.8526 19.2336C25.7956 19.3805 25.7356 19.5274 25.6696 19.6714L25.4956 20.0642L27.9737 22.5411C28.1657 22.733 28.1657 23.0449 27.9737 23.2338L23.2394 27.9657C23.1464 28.0587 23.0234 28.1097 22.8914 28.1097C22.7594 28.1097 22.6364 28.0587 22.5434 27.9657L20.0682 25.4888L19.6752 25.6597C19.5252 25.7257 19.3782 25.7887 19.2282 25.8457L18.8352 26.0016V29.4951C18.8352 29.765 18.6161 29.9869 18.3431 29.9869H11.6497V29.9988ZM9.8406 24.4033C9.91861 24.4033 9.99662 24.4213 10.0686 24.4603C10.6207 24.7511 11.2027 24.994 11.7967 25.183C12.0037 25.2489 12.1417 25.4348 12.1417 25.6508L12.1387 29.0183H17.8541V25.6508C17.8541 25.4348 17.9921 25.2459 18.1991 25.183C18.7962 24.994 19.3782 24.7511 19.9302 24.4603C19.9992 24.4243 20.0772 24.4063 20.1552 24.4063C20.2872 24.4063 20.4103 24.4573 20.5033 24.5502L22.8884 26.9372L26.9297 22.898L24.5415 20.511C24.3885 20.3581 24.3555 20.1272 24.4545 19.9383C24.7455 19.3865 24.9885 18.8048 25.1775 18.211C25.2436 18.0041 25.4326 17.8662 25.6456 17.8662H29.0148V12.1537H25.6486C25.4326 12.1537 25.2436 12.0157 25.1805 11.8088C24.9915 11.2121 24.7455 10.6333 24.4575 10.0786C24.3585 9.88967 24.3945 9.65877 24.5475 9.50583L26.9357 7.11888L22.8944 3.07965L20.5063 5.4666C20.4132 5.55956 20.2903 5.61054 20.1582 5.61054C20.0802 5.61054 20.0022 5.59255 19.9302 5.55357C19.3782 5.26269 18.7962 5.0198 18.2021 4.83088C17.9951 4.76491 17.8571 4.57899 17.8571 4.36309V0.995563H12.1447V4.36309C12.1447 4.57899 12.0067 4.76791 11.7997 4.83088C11.2027 5.0198 10.6207 5.26269 10.0686 5.55357C9.99962 5.58955 9.92161 5.60754 9.84361 5.60754C9.7116 5.60754 9.58859 5.55656 9.49558 5.4636L7.11043 3.07665L3.06918 7.11588L5.45734 9.50283C5.61035 9.65576 5.64334 9.88667 5.54434 10.0786C5.25632 10.6273 5.0133 11.2091 4.82129 11.8028C4.75529 12.0097 4.56628 12.1507 4.35326 12.1507H0.98406V17.8632H4.35326C4.56928 17.8632 4.75829 18.0011 4.82129 18.208C5.0103 18.8048 5.25632 19.3835 5.54434 19.9383C5.64334 20.1272 5.60734 20.3581 5.45433 20.511L3.06619 22.898L7.10744 26.9372L9.49558 24.5502C9.58559 24.4543 9.70859 24.4033 9.8406 24.4033Z" fill="current"/>
<path d="M14.4281 21.9564C18.7214 22.2982 22.2946 18.7268 21.9526 14.4357C21.6826 11.0592 18.9464 8.32136 15.5652 8.05148C11.272 7.70963 7.69873 11.2811 8.04075 15.5722C8.31076 18.9517 11.0499 21.6895 14.4281 21.9564Z" stroke="current"/>
</svg>
