<svg width="869" height="647" viewBox="0 0 869 647" fill="none" xmlns="http://www.w3.org/2000/svg">
<path d="M868.317 568.573H0V569.008H868.317V568.573Z" fill="#EBEBEB"/>
<path d="M604.921 587.955H586.722V588.389H604.921V587.955Z" fill="#EBEBEB"/>
<path d="M182.659 579.271H112.76V579.705H182.659V579.271Z" fill="#EBEBEB"/>
<path d="M320.113 580.556H217.392V580.991H320.113V580.556Z" fill="#EBEBEB"/>
<path d="M467.155 580.556H437.58V580.991H467.155V580.556Z" fill="#EBEBEB"/>
<path d="M774.608 583.3H679.788V583.735H774.608V583.3Z" fill="#EBEBEB"/>
<path d="M397.307 590.455H358.129V590.889H397.307V590.455Z" fill="#EBEBEB"/>
<path d="M809.601 583.526H784.75V583.96H809.601V583.526Z" fill="#EBEBEB"/>
<path d="M411.582 491.12H76.2556C73.6287 491.115 71.1109 490.068 69.2551 488.209C67.3992 486.35 66.3568 483.831 66.3568 481.204V9.82934C66.3797 7.21749 67.4321 4.72013 69.2855 2.87972C71.139 1.0393 73.6437 0.00447424 76.2556 0H411.582C414.212 0 416.734 1.04474 418.594 2.90438C420.454 4.76402 421.498 7.28624 421.498 9.91617V481.204C421.498 483.834 420.454 486.356 418.594 488.215C416.734 490.075 414.212 491.12 411.582 491.12ZM76.2556 0.347328C73.7438 0.351928 71.3365 1.35295 69.562 3.13067C67.7876 4.9084 66.791 7.31756 66.791 9.82934V481.204C66.791 483.715 67.7876 486.125 69.562 487.902C71.3365 489.68 73.7438 490.681 76.2556 490.686H411.582C414.095 490.681 416.505 489.681 418.282 487.903C420.059 486.126 421.06 483.717 421.064 481.204V9.82934C421.06 7.31597 420.059 4.90684 418.282 3.12961C416.505 1.35239 414.095 0.351919 411.582 0.347328H76.2556Z" fill="#EBEBEB"/>
<path d="M787.233 491.12H451.89C449.261 491.115 446.742 490.069 444.883 488.21C443.024 486.352 441.978 483.832 441.973 481.204V9.82934C442.001 7.21591 443.057 4.71857 444.913 2.87863C446.769 1.0387 449.276 0.00442544 451.89 0H787.233C789.842 0.0090383 792.343 1.04589 794.192 2.88581C796.042 4.72574 797.092 7.22049 797.115 9.82934V481.204C797.115 483.828 796.075 486.344 794.223 488.203C792.371 490.062 789.857 491.111 787.233 491.12ZM451.89 0.347328C449.376 0.351919 446.967 1.35239 445.19 3.12961C443.413 4.90684 442.412 7.31597 442.408 9.82934V481.204C442.412 483.717 443.413 486.126 445.19 487.903C446.967 489.681 449.376 490.681 451.89 490.686H787.233C789.747 490.681 792.156 489.681 793.933 487.903C795.71 486.126 796.711 483.717 796.715 481.204V9.82934C796.711 7.31597 795.71 4.90684 793.933 3.12961C792.156 1.35239 789.747 0.351919 787.233 0.347328H451.89Z" fill="#EBEBEB"/>
<path d="M126.462 308.131L363.13 308.131L363.13 32.3533L126.462 32.3533L126.462 308.131Z" fill="#F5F5F5"/>
<path d="M120.019 308.131L360.108 308.131L360.108 32.3533L120.019 32.3533L120.019 308.131Z" fill="#F5F5F5"/>
<path d="M126.462 323.569L363.13 323.569V308.113H126.462V323.569Z" fill="#E6E6E6"/>
<path d="M90.5999 323.569H316.623V308.113H90.5999V323.569Z" fill="#F5F5F5"/>
<path d="M351.112 296.426V44.041L129.032 44.041L129.032 296.426H351.112Z" fill="#FAFAFA"/>
<path d="M319.159 296.426L266.296 44.0586H197.021L249.867 296.426H319.159Z" fill="white"/>
<path d="M238.648 296.426L185.802 44.0586H154.508L207.371 296.426H238.648Z" fill="white"/>
<path d="M130.161 270.029V42.4781H129.015V270.029H130.161Z" fill="white"/>
<path d="M369.903 31.9541V130.143H343.853C343.853 130.143 297.172 99.7002 286.544 37.0598C286.292 35.568 286.368 34.0392 286.766 32.5796C287.165 31.1201 287.876 29.7647 288.851 28.6079C289.826 27.451 291.041 26.5204 292.412 25.8807C293.784 25.2409 295.277 24.9074 296.79 24.9034H362.782C363.714 24.8965 364.637 25.0737 365.499 25.4248C366.362 25.7758 367.146 26.2938 367.808 26.949C368.47 27.6041 368.995 28.3836 369.355 29.2425C369.714 30.1015 369.9 31.023 369.903 31.9541Z" fill="#E6E6E6"/>
<path d="M369.903 287.535V138.062H343.853C343.853 138.062 328.918 168.245 314.018 202.943C310.084 212.183 308.501 222.254 309.41 232.256C310.32 242.257 313.693 251.877 319.228 260.257C324.764 268.636 332.29 275.513 341.133 280.273C349.976 285.033 359.86 287.528 369.903 287.535Z" fill="#E6E6E6"/>
<path d="M344.652 138.062H368.913C370.351 138.062 371.518 136.896 371.518 135.458V132.748C371.518 131.31 370.351 130.143 368.913 130.143H344.652C343.213 130.143 342.047 131.31 342.047 132.748V135.458C342.047 136.896 343.213 138.062 344.652 138.062Z" fill="#F5F5F5"/>
<path d="M112.655 31.9541V130.143H138.705C138.705 130.143 185.385 99.7002 196.014 37.0598C196.266 35.568 196.19 34.0392 195.792 32.5796C195.393 31.1201 194.682 29.7647 193.707 28.6079C192.732 27.451 191.517 26.5204 190.145 25.8807C188.774 25.2409 187.28 24.9074 185.768 24.9034H119.775C118.844 24.8965 117.921 25.0737 117.059 25.4248C116.196 25.7758 115.412 26.2938 114.75 26.949C114.088 27.6041 113.563 28.3836 113.203 29.2425C112.844 30.1015 112.658 31.023 112.655 31.9541Z" fill="#E6E6E6"/>
<path d="M112.655 287.535V138.062H138.705C138.705 138.062 153.64 168.245 168.54 202.943C172.472 212.178 174.055 222.242 173.149 232.238C172.244 242.234 168.876 251.85 163.349 260.228C157.821 268.605 150.305 275.483 141.471 280.248C132.638 285.013 122.762 287.516 112.725 287.535H112.655Z" fill="#E6E6E6"/>
<path d="M137.888 130.143H113.628C112.189 130.143 111.023 131.31 111.023 132.748V135.458C111.023 136.896 112.189 138.062 113.628 138.062H137.888C139.327 138.062 140.493 136.896 140.493 135.458V132.748C140.493 131.31 139.327 130.143 137.888 130.143Z" fill="#F5F5F5"/>
<path d="M641.443 254.173H745.693V66.2177H641.443V254.173Z" fill="#E0E0E0"/>
<path d="M629.773 254.173H743.036V66.2177H629.773V254.173Z" fill="#F5F5F5"/>
<path d="M731.349 242.486V77.8879H641.443V242.486H731.349Z" fill="white"/>
<path d="M699.933 135.423V111.092H672.859V135.423H699.933Z" fill="#F5F5F5"/>
<path d="M699.933 172.343V148.013H672.859V172.343H699.933Z" fill="#F5F5F5"/>
<path d="M699.933 209.264V184.934H672.859V209.264H699.933Z" fill="#F5F5F5"/>
<path d="M529.951 210.133C544.902 209.872 559.153 203.749 569.634 193.084C580.114 182.418 585.987 168.063 585.987 153.11C585.987 138.157 580.114 123.802 569.634 113.137C559.153 102.471 544.902 96.3488 529.951 96.0879H526.478V210.133H529.951Z" fill="#E6E6E6"/>
<path d="M539.75 208.564C570.37 201.224 589.242 170.451 581.902 139.831C574.562 109.211 543.79 90.3383 513.169 97.6783C482.549 105.018 463.676 135.791 471.016 166.412C478.356 197.032 509.129 215.904 539.75 208.564Z" fill="#F5F5F5"/>
<path d="M533.386 195.598C556.822 191.764 572.713 169.658 568.879 146.222C565.046 122.785 542.939 106.894 519.503 110.728C496.067 114.562 480.176 136.668 484.009 160.104C487.843 183.541 509.95 199.432 533.386 195.598Z" fill="white"/>
<path d="M508.66 169.166L505.308 164.355L523.195 151.886L517.291 123.162L523.022 121.981L529.708 154.474L508.66 169.166Z" fill="#E6E6E6"/>
<path d="M249.207 574.739H323.726V373.393H249.207L249.207 574.739Z" fill="#E6E6E6"/>
<path d="M269.109 574.722H249.207V541.378H289.966L269.109 574.722Z" fill="#F0F0F0"/>
<path d="M695.956 574.739H770.475V373.393H695.956V574.739Z" fill="#F0F0F0"/>
<path d="M249.207 563.26H713.34V373.394L249.207 373.394V563.26Z" fill="#FAFAFA"/>
<path d="M693.438 574.722H713.34V541.378H672.564L693.438 574.722Z" fill="#F0F0F0"/>
<path d="M264.646 459.6L697.901 459.6V389.718L264.646 389.718V459.6Z" fill="#F0F0F0"/>
<path d="M264.646 546.362H697.901V476.48L264.646 476.48V546.362Z" fill="#F0F0F0"/>
<path d="M583.335 353.717C591.929 353.717 598.896 346.751 598.896 338.157C598.896 329.563 591.929 322.597 583.335 322.597C574.742 322.597 567.775 329.563 567.775 338.157C567.775 346.751 574.742 353.717 583.335 353.717Z" fill="#F5F5F5"/>
<path d="M594.311 345.59C594.311 347.994 595.024 350.345 596.36 352.344C597.695 354.343 599.594 355.901 601.815 356.821C604.036 357.741 606.481 357.982 608.839 357.513C611.197 357.044 613.363 355.886 615.063 354.186C616.763 352.486 617.921 350.32 618.39 347.962C618.859 345.604 618.618 343.159 617.698 340.938C616.778 338.717 615.22 336.818 613.221 335.482C611.222 334.147 608.872 333.434 606.467 333.434C603.243 333.434 600.151 334.714 597.871 336.994C595.592 339.274 594.311 342.366 594.311 345.59Z" fill="#F5F5F5"/>
<path d="M556.712 361.133C565.306 361.133 572.273 354.166 572.273 345.573C572.273 336.979 565.306 330.013 556.712 330.013C548.119 330.013 541.152 336.979 541.152 345.573C541.152 354.166 548.119 361.133 556.712 361.133Z" fill="#F5F5F5"/>
<path d="M531.201 356.565C539.795 356.565 546.761 349.599 546.761 341.005C546.761 332.411 539.795 325.445 531.201 325.445C522.607 325.445 515.641 332.411 515.641 341.005C515.641 349.599 522.607 356.565 531.201 356.565Z" fill="#F5F5F5"/>
<path d="M649.31 343.037C649.31 343.037 647.174 373.376 565.292 373.376C483.41 373.376 481.274 343.037 481.274 343.037H649.31Z" fill="#E6E6E6"/>
<path d="M434.158 647C620.121 647 770.874 638.199 770.874 627.341C770.874 616.484 620.121 607.683 434.158 607.683C248.195 607.683 97.4426 616.484 97.4426 627.341C97.4426 638.199 248.195 647 434.158 647Z" fill="#F5F5F5"/>
<path d="M358.267 183.458C358.493 184.222 358.893 185.386 359.24 186.358L360.351 189.467C361.115 191.533 361.949 193.583 362.835 195.615C364.566 199.636 366.514 203.561 368.67 207.372C372.942 214.839 378.134 221.595 384.299 225.919L385.376 226.666C385.376 226.666 385.376 226.787 385.637 226.822C386.812 226.792 387.962 226.476 388.988 225.901C392.547 224.016 395.822 221.637 398.714 218.833C402.055 215.774 405.237 212.546 408.248 209.16C411.339 205.687 414.378 202.092 417.243 198.567L425.527 203.568C421.224 212.693 415.817 221.255 409.429 229.062C405.919 233.403 401.76 237.175 397.098 240.246C394.035 242.219 390.57 243.482 386.957 243.945C384.657 244.179 382.333 243.967 380.114 243.32C378.97 242.984 377.864 242.53 376.815 241.965L374.817 240.854C369.963 237.927 365.569 234.299 361.775 230.087C358.149 226.125 354.916 221.821 352.12 217.236C349.377 212.784 346.957 208.141 344.878 203.343C343.853 200.981 342.881 198.584 341.995 196.17C341.544 194.955 341.109 193.739 340.71 192.489C340.311 191.238 339.946 190.092 339.529 188.546L358.267 183.458Z" fill="#B97964"/>
<path d="M376.206 214.144L353.995 226.44C353.995 226.44 353.335 225.485 352.258 223.835C351.477 222.619 350.522 221.021 349.306 219.146C342.776 208.535 331.94 189.154 334.77 180.94C339.095 168.297 355.037 168.506 362.869 183.163C366.656 190.466 370.048 197.967 373.028 205.635C373.845 207.684 374.522 209.473 375.043 210.845C375.79 212.946 376.206 214.144 376.206 214.144Z" fill="#1DB548"/>
<path opacity="0.2" d="M376.206 214.144L353.995 226.44C353.995 226.44 353.335 225.485 352.258 223.835C351.477 222.619 350.522 221.021 349.306 219.146C342.776 208.535 331.94 189.154 334.77 180.94C339.095 168.297 355.037 168.506 362.869 183.163C366.656 190.466 370.048 197.967 373.028 205.635C373.845 207.684 374.522 209.473 375.043 210.845C375.79 212.946 376.206 214.144 376.206 214.144Z" fill="#093254"/>
<path opacity="0.2" d="M375.113 210.931L352.328 223.835C351.547 222.619 350.592 221.021 349.376 219.146L373.099 205.704C373.845 207.753 374.523 209.542 375.113 210.931Z" fill="#093254"/>
<path opacity="0.2" d="M334.441 182.468C339.408 180.071 345.139 182.069 351.147 191.585C357.156 201.102 362.314 217.079 362.956 221.542L354.082 226.44C354.082 226.44 332.617 195.128 334.441 182.468Z" fill="#093254"/>
<path d="M355.037 284.131H286.179C285.693 277.983 287.117 257.977 286.058 232.501C285.403 213.617 283.114 194.826 279.215 176.338C278.903 174.949 278.59 173.577 278.26 172.187C278.26 172.187 281.734 171.475 286.752 170.746C290.903 170.138 296.113 169.513 301.219 169.27C310.965 168.714 320.735 168.714 330.481 169.27C334.979 169.687 339.372 170.433 342.88 171.111C347.361 172.014 350.417 172.847 350.417 172.847C350.417 172.847 366.967 211.73 355.037 284.131Z" fill="#1DB548"/>
<path opacity="0.2" d="M355.037 284.131H286.179C285.693 277.983 287.117 257.977 286.058 232.501C285.403 213.617 283.114 194.826 279.215 176.338C278.903 174.949 278.59 173.577 278.26 172.187C278.26 172.187 281.734 171.475 286.752 170.746C290.903 170.138 296.113 169.513 301.219 169.27C310.965 168.714 320.735 168.714 330.481 169.27C334.979 169.687 339.372 170.433 342.88 171.111C347.361 172.014 350.417 172.847 350.417 172.847C350.417 172.847 366.967 211.73 355.037 284.131Z" fill="#093254"/>
<path d="M261.137 591.949L271.349 601.084L290.764 580.852L280.57 571.717L261.137 591.949Z" fill="#B97964"/>
<path d="M296.096 610.965H308.964L310.649 581.147H297.763L296.096 610.965Z" fill="#B97964"/>
<path d="M290.764 580.869L280.744 591.289L270.532 582.154L280.553 571.717L290.764 580.869Z" fill="#A76755"/>
<path d="M297.763 581.164H310.649L309.781 596.533H296.895L297.763 581.164Z" fill="#A76755"/>
<path d="M354.378 283.471C354.378 283.471 367.941 377.353 372.578 428.462C376.294 469.447 287.639 591.706 287.639 591.706L270.481 575.572C270.481 575.572 335.24 465.973 330.256 420.335C325.428 376.12 309.069 283.419 309.069 283.419L354.378 283.471Z" fill="#093254"/>
<path d="M309.641 609.558H295.227C295.106 609.554 294.986 609.573 294.872 609.615C294.759 609.657 294.655 609.721 294.566 609.803C294.477 609.886 294.406 609.984 294.355 610.094C294.305 610.204 294.277 610.323 294.272 610.444L293.577 621.889C293.577 622.491 293.814 623.068 294.236 623.497C294.659 623.926 295.233 624.172 295.835 624.181C300.871 624.094 303.268 623.781 309.728 623.781C313.636 623.781 330.272 624.198 335.673 624.198C341.074 624.198 340.883 618.849 338.643 618.363C328.362 616.192 315.633 613.153 312.003 610.357C311.336 609.818 310.499 609.534 309.641 609.558Z" fill="#263238"/>
<path d="M274.162 597.402L261.745 589.049C261.544 588.892 261.297 588.807 261.042 588.807C260.787 588.807 260.54 588.892 260.339 589.049L250.857 598.618C250.668 598.828 250.529 599.078 250.449 599.348C250.369 599.619 250.35 599.904 250.393 600.183C250.436 600.462 250.541 600.728 250.699 600.962C250.857 601.196 251.065 601.391 251.308 601.535C259.227 607.631 264.941 612.215 269.439 617.286C274.648 623.226 277.479 624.059 289.636 624.059C295.262 624.059 298.44 619.318 296.148 618.589C275.882 612.181 281.3 609.385 276.385 599.989C275.862 598.961 275.1 598.074 274.162 597.402Z" fill="#263238"/>
<path d="M415.715 200.755L420.143 186.584L431.64 195.006C431.64 195.006 425.353 207.632 421.099 206.486L415.715 200.755Z" fill="#B97964"/>
<path d="M432.248 181.166L438.726 189.102L431.64 195.006L420.144 186.584L432.248 181.166Z" fill="#B97964"/>
<path opacity="0.2" d="M286.058 232.5C285.404 213.617 283.115 194.826 279.216 176.338C283.818 175.938 291.685 176.338 292.988 183.823C294.394 191.811 292.623 210.601 286.058 232.5Z" fill="#093254"/>
<path opacity="0.5" d="M330.256 420.369C327.772 397.602 322.215 361.932 317.439 332.722C319.94 327.824 326.939 317.925 326.939 317.925C333.225 339.651 346.893 421.533 327.408 532.139C307.089 564.892 287.639 591.74 287.639 591.74L284.982 549.505C303.755 514.182 333.712 451.959 330.256 420.369Z" fill="#001527"/>
<path d="M290.747 190.891L287.708 196.101C286.666 197.907 285.658 199.73 284.686 201.571C282.706 205.253 280.802 208.958 278.972 212.686C277.236 216.419 275.499 220.17 273.953 223.922C272.461 227.622 271.156 231.395 270.046 235.227L269.838 235.922L269.733 236.286C269.733 236.391 269.733 236.286 269.733 236.286C269.676 236.382 269.641 236.488 269.629 236.599C269.576 237.136 269.576 237.677 269.629 238.214C269.808 239.854 270.152 241.471 270.654 243.042C271.857 246.811 273.325 250.49 275.048 254.052C278.521 261.52 282.741 269.109 286.961 276.437L279.337 282.394C273.004 275.953 267.278 268.942 262.231 261.45C259.555 257.487 257.23 253.298 255.285 248.929C254.186 246.437 253.337 243.843 252.749 241.184C252.41 239.579 252.236 237.944 252.228 236.304C252.215 235.316 252.285 234.328 252.437 233.352L252.558 232.64V232.188L252.749 231.302C254.62 222.132 257.503 213.197 261.346 204.662C263.169 200.46 265.166 196.361 267.302 192.35C268.379 190.335 269.473 188.355 270.619 186.376C271.765 184.396 272.894 182.52 274.249 180.419L290.747 190.891Z" fill="#B97964"/>
<path d="M295.349 195.632C292.138 204.525 288.41 213.223 284.182 221.681C283.262 223.591 282.446 225.293 281.716 226.665C280.501 229.079 279.737 230.538 279.737 230.538L253.687 216.089C253.687 216.089 254.017 214.995 254.607 213.154C255.059 211.765 255.649 209.941 256.344 207.84C260.686 195.458 269.56 173.368 278.26 172.1C291.268 170.294 300.628 180.019 295.349 195.632Z" fill="#1DB548"/>
<path opacity="0.2" d="M284.182 221.768C283.262 223.678 282.446 225.38 281.716 226.752L254.573 213.241C255.024 211.852 255.615 210.028 256.309 207.927L284.182 221.768Z" fill="#093254"/>
<path d="M314.209 611.712C313.038 611.685 311.874 611.534 310.735 611.26C310.677 611.244 310.624 611.214 310.582 611.171C310.539 611.128 310.508 611.075 310.492 611.017C310.486 610.96 310.496 610.902 310.52 610.85C310.545 610.798 310.583 610.754 310.631 610.722C311.031 610.427 314.695 607.943 316.258 608.551C316.437 608.622 316.594 608.738 316.716 608.886C316.837 609.035 316.919 609.213 316.953 609.402C317.032 609.684 317.038 609.982 316.972 610.268C316.905 610.553 316.767 610.817 316.571 611.035C315.892 611.541 315.052 611.781 314.209 611.712ZM311.604 610.826C313.914 611.278 315.598 611.208 316.206 610.618C316.331 610.472 316.416 610.296 316.452 610.107C316.489 609.918 316.476 609.723 316.414 609.541C316.402 609.448 316.364 609.361 316.306 609.287C316.248 609.214 316.172 609.158 316.084 609.124C315.233 608.794 313.097 609.871 311.604 610.826Z" fill="#1DB548"/>
<path d="M310.857 611.295C310.812 611.309 310.764 611.309 310.718 611.295C310.675 611.27 310.638 611.235 310.611 611.192C310.583 611.15 310.567 611.102 310.562 611.051C310.562 610.895 310.267 607.196 311.569 605.946C311.733 605.782 311.933 605.658 312.154 605.586C312.374 605.514 312.608 605.494 312.837 605.529C313.093 605.541 313.338 605.635 313.535 605.798C313.732 605.961 313.871 606.183 313.931 606.432C314.226 607.839 312.299 610.53 311.014 611.295H310.857ZM312.594 606.085C312.475 606.082 312.356 606.103 312.246 606.148C312.135 606.193 312.035 606.26 311.951 606.345C311.237 607.579 310.938 609.01 311.101 610.426C312.212 609.489 313.497 607.439 313.306 606.519C313.306 606.345 313.167 606.137 312.733 606.085H312.594Z" fill="#1DB548"/>
<path d="M282.498 604.348C280.201 603.996 278.009 603.149 276.072 601.865C276.02 601.834 275.978 601.787 275.953 601.731C275.928 601.675 275.921 601.613 275.933 601.552C275.947 601.49 275.979 601.434 276.026 601.39C276.072 601.347 276.131 601.318 276.194 601.309C276.888 601.309 282.984 600.858 284.165 602.247C284.261 602.368 284.326 602.509 284.356 602.66C284.387 602.811 284.38 602.967 284.339 603.115C284.288 603.355 284.179 603.579 284.022 603.767C283.864 603.954 283.663 604.101 283.436 604.192C283.135 604.3 282.817 604.353 282.498 604.348ZM277.288 601.848C280.067 603.376 282.255 604.036 283.227 603.584C283.37 603.526 283.497 603.434 283.597 603.316C283.697 603.198 283.767 603.058 283.8 602.907C283.829 602.857 283.845 602.8 283.845 602.742C283.845 602.684 283.829 602.627 283.8 602.577C283.071 601.917 279.737 601.796 277.253 601.9L277.288 601.848Z" fill="#1DB548"/>
<path d="M276.229 601.969C276.177 601.969 276.126 601.957 276.081 601.932C276.036 601.908 275.997 601.873 275.968 601.83C275.947 601.784 275.935 601.734 275.935 601.683C275.935 601.632 275.947 601.581 275.968 601.535C276.072 601.327 278.4 596.603 281.369 598.062C282.185 598.461 282.272 598.947 282.203 599.277C281.89 600.667 278.017 601.952 276.246 602.004L276.229 601.969ZM280.24 598.374C278.66 598.374 277.305 600.389 276.767 601.327C278.625 601.083 281.439 599.937 281.612 599.121C281.612 598.93 281.473 598.756 281.109 598.565C280.838 598.436 280.541 598.37 280.24 598.374Z" fill="#1DB548"/>
<path d="M283.505 273.711L296.321 271.488L289.739 286.319C289.739 286.319 278.035 286.319 278.573 280.223L283.505 273.711Z" fill="#B97964"/>
<path d="M305.873 278.938L299.865 290.921L289.74 286.319L296.322 271.488L305.873 278.938Z" fill="#B97964"/>
<path d="M269.438 574.634L288.68 592.73L294.863 586.079L272.877 566.038L269.438 574.634Z" fill="#1DB548"/>
<path opacity="0.7" d="M269.438 574.634L288.68 592.73L294.863 586.079L272.877 566.038L269.438 574.634Z" fill="white"/>
<path d="M329.96 283.471C329.96 283.471 331.193 381.868 329.109 418.72C326.817 459.096 315.373 592.817 315.373 592.817H291.754C291.754 592.817 292.449 462.344 291.042 422.384C289.497 378.968 285.502 283.453 285.502 283.453L329.96 283.471Z" fill="#093254"/>
<path d="M290.764 592.817H316.241L317.665 583.874L289.531 585.263L290.764 592.817Z" fill="#1DB548"/>
<path opacity="0.7" d="M290.764 592.817H316.241L317.665 583.874L289.531 585.263L290.764 592.817Z" fill="white"/>
<path opacity="0.2" d="M295.349 195.632C292.138 204.525 288.41 213.223 284.182 221.681C283.262 223.591 282.446 225.293 281.716 226.665C280.501 229.079 279.737 230.538 279.737 230.538L253.687 216.089C253.687 216.089 254.017 214.995 254.607 213.154C255.059 211.765 255.649 209.941 256.344 207.84C260.686 195.458 269.56 173.368 278.26 172.1C291.268 170.294 300.628 180.019 295.349 195.632Z" fill="#093254"/>
<path d="M341.475 179.29C340.085 183.892 336.265 190.04 325.584 193.183L322.806 194.017L319.975 193.513C298.18 189.606 290.157 177.883 288.716 175.608L285.798 170.746C289.949 170.138 295.159 169.513 300.264 169.27C310.01 168.714 319.78 168.714 329.527 169.27C334.024 169.687 338.418 170.433 341.926 171.111C342.41 173.835 342.256 176.635 341.475 179.29Z" fill="#1DB548"/>
<path opacity="0.4" d="M341.475 179.29C340.085 183.892 336.265 190.04 325.584 193.183L322.806 194.017L319.975 193.513C298.18 189.606 290.157 177.883 288.716 175.608L285.798 170.746C289.949 170.138 295.159 169.513 300.264 169.27C310.01 168.714 319.78 168.714 329.527 169.27C334.024 169.687 338.418 170.433 341.926 171.111C342.41 173.835 342.256 176.635 341.475 179.29Z" fill="#093254"/>
<path d="M323.014 181.548C305.543 178.404 300.073 169.391 300.073 169.391C306.446 163.104 303.998 145.929 301.809 136.499L309.642 142.994L320.305 151.851C319.988 153.271 319.762 154.71 319.627 156.158C319.054 161.941 320.548 167.203 329.057 169.217C329.092 169.165 336.143 177.64 323.014 181.548Z" fill="#B97964"/>
<path d="M320.339 151.799C320.023 153.219 319.797 154.658 319.662 156.106C315.685 155.307 310.371 151.07 309.815 147.006C309.62 145.661 309.573 144.298 309.676 142.942L320.339 151.799Z" fill="#A76755"/>
<path d="M327.581 103.555C333.937 106.421 337.463 124.291 329.318 128.146C321.173 132.001 315.564 98.1198 327.581 103.555Z" fill="#263238"/>
<path d="M298.7 122.884C301.427 135.405 302.382 142.855 309.78 148.569C312.166 150.448 315.019 151.64 318.032 152.016C321.045 152.392 324.104 151.938 326.878 150.703C329.652 149.468 332.036 147.499 333.773 145.008C335.51 142.517 336.533 139.599 336.733 136.569C337.705 124.916 333.086 106.403 319.905 102.861C317.073 102.017 314.069 101.932 311.195 102.616C308.32 103.3 305.676 104.728 303.527 106.756C301.379 108.785 299.802 111.343 298.955 114.174C298.108 117.005 298.02 120.009 298.7 122.884Z" fill="#B97964"/>
<path d="M284.095 110.467C278 113.159 281.456 121.495 285.606 126.792C291.355 134.155 297.433 137.593 301.566 134.207C305.282 132.349 307.731 121.391 304.501 114.635C310.214 110.867 322.076 115.521 325.775 109.425C329.474 103.33 332.113 103.833 338.626 107.862C345.138 111.891 350.348 95.9664 333.416 92.9967C342.794 97.2167 340.64 105.431 333.78 97.0083C328.935 91.0691 317.317 84.5046 309.242 93.3614C303.285 99.8217 282.359 89.836 284.095 110.467Z" fill="#263238"/>
<path d="M295.731 135.944C297.762 138.387 300.569 140.06 303.685 140.685C307.627 141.345 308.513 137.698 306.516 134.155C304.779 130.977 300.472 126.792 296.947 127.729C293.421 128.667 293.178 132.87 295.731 135.944Z" fill="#B97964"/>
<g opacity="0.9">
<path opacity="0.9" d="M611.854 357.599C613.18 354.277 615.446 351.412 618.374 349.357C621.302 347.301 624.765 346.144 628.341 346.026H765.852C774.088 346.026 779.656 352.702 778.33 360.953L734.828 620.673C734.061 624.78 731.917 628.503 728.749 631.228C725.582 633.953 721.581 635.517 717.405 635.663H372.598C370.721 635.735 368.852 635.377 367.135 634.614C365.417 633.851 363.898 632.705 362.693 631.264C361.488 629.822 360.629 628.124 360.183 626.299C359.737 624.473 359.716 622.57 360.12 620.735L397.102 399.636C397.885 395.541 400.035 391.834 403.201 389.122C406.366 386.41 410.359 384.853 414.525 384.708H573.343C589.596 384.646 605.553 373.431 611.854 357.599Z" fill="#1DB548"/>
</g>
<path opacity="0.5" d="M611.854 357.599C613.18 354.277 615.446 351.412 618.374 349.357C621.302 347.301 624.765 346.144 628.341 346.026H765.852C774.088 346.026 779.656 352.702 778.33 360.953L734.828 620.673C734.061 624.78 731.917 628.503 728.749 631.228C725.582 633.953 721.581 635.517 717.405 635.663H372.598C370.721 635.735 368.852 635.377 367.135 634.614C365.417 633.851 363.898 632.705 362.693 631.264C361.488 629.822 360.629 628.124 360.183 626.299C359.737 624.473 359.716 622.57 360.12 620.735L397.102 399.636C397.885 395.541 400.035 391.834 403.201 389.122C406.366 386.41 410.359 384.853 414.525 384.708H573.343C589.596 384.646 605.553 373.431 611.854 357.599Z" fill="white"/>
<path opacity="0.9" d="M557.12 127L453.067 488.559L691.09 557.049L795.128 195.49L557.12 127Z" fill="#1DB548"/>
<path opacity="0.7" d="M557.12 127L453.067 488.559L691.09 557.049L795.128 195.49L557.12 127Z" fill="white"/>
<g style="mix-blend-mode:multiply" opacity="0.9">
<path d="M552.503 143.019L453.067 488.559L682.995 554.725L776.193 197.097L552.503 143.019Z" fill="#1DB548"/>
</g>
<path opacity="0.6" d="M552.503 143.019L453.067 488.559L682.995 554.725L776.193 197.097L552.503 143.019Z" fill="#1DB548"/>
<g opacity="0.9">
<g style="mix-blend-mode:multiply" opacity="0.9">
<path d="M552.503 143.019L453.067 488.559L682.995 554.725L776.193 197.097L552.503 143.019Z" fill="white"/>
</g>
<path opacity="0.6" d="M552.503 143.019L453.067 488.559L682.995 554.725L776.193 197.097L552.503 143.019Z" fill="white"/>
</g>
<path d="M636.785 240.909C652.386 223.07 650.571 195.962 632.732 180.361C614.892 164.761 587.784 166.576 572.184 184.415C556.583 202.254 558.398 229.362 576.237 244.963C594.076 260.563 621.184 258.749 636.785 240.909Z" fill="#1DB548"/>
<path d="M595.071 245.294C588.611 243.428 582.85 239.688 578.515 234.548C574.181 229.407 571.467 223.097 570.718 216.415C569.969 209.733 571.218 202.979 574.307 197.006C577.396 191.034 582.186 186.111 588.072 182.861C593.958 179.611 600.676 178.178 607.376 178.745C614.076 179.312 620.458 181.852 625.714 186.045C630.971 190.238 634.866 195.896 636.908 202.302C638.95 208.709 639.046 215.577 637.185 222.038C635.951 226.332 633.881 230.341 631.095 233.835C628.31 237.329 624.862 240.239 620.951 242.399C617.039 244.559 612.74 245.927 608.299 246.424C603.858 246.92 599.363 246.537 595.071 245.294Z" fill="white"/>
<path d="M621.033 281.101L545.275 259.306L540.376 276.334L616.134 298.129L621.033 281.101Z" fill="#1DB548"/>
<path d="M545.819 414.611L504.057 402.596L485.014 468.792L526.776 480.806L545.819 414.611Z" fill="#1DB548"/>
<path d="M693.594 457.132L651.832 445.118L632.788 511.313L674.55 523.327L693.594 457.132Z" fill="#1DB548"/>
<path d="M619.699 435.879L577.938 423.865L558.894 490.06L600.656 502.075L619.699 435.879Z" fill="#1DB548"/>
<path d="M682.25 298.699L630.999 283.955L626.1 300.983L677.351 315.727L682.25 298.699Z" fill="#1DB548"/>
<path d="M722.168 350.247L534.63 296.295L532.612 303.31L720.15 357.263L722.168 350.247Z" fill="white"/>
<path d="M623.594 338.028L530.342 311.2L528.324 318.216L621.576 345.043L623.594 338.028Z" fill="white"/>
<path d="M701.92 360.562L639.547 342.618L637.529 349.633L699.902 367.577L701.92 360.562Z" fill="white"/>
<path d="M675.966 369.223L526.052 326.095L524.034 333.11L673.948 376.239L675.966 369.223Z" fill="white"/>
<path d="M692.191 392.134L520.051 341.926L518.007 348.934L690.147 399.142L692.191 392.134Z" fill="white"/>
<path d="M537.376 361.643L517.469 355.916L515.451 362.931L535.357 368.658L537.376 361.643Z" fill="white"/>
<path d="M641.312 391.548L553.351 366.242L551.333 373.257L639.294 398.563L641.312 391.548Z" fill="white"/>
<path d="M700.725 424.783L513.187 370.83L511.169 377.845L698.707 431.798L700.725 424.783Z" fill="white"/>
<path d="M529.419 139.65L437.937 504.64L678.144 564.864L769.61 199.873L529.419 139.65Z" fill="#1DB548"/>
<path opacity="0.8" d="M529.419 139.65L437.937 504.64L678.144 564.864L769.61 199.873L529.419 139.65Z" fill="white"/>
<path d="M598.374 262.133C619.714 251.826 628.658 226.171 618.351 204.832C608.044 183.492 582.39 174.548 561.05 184.855C539.71 195.162 530.766 220.816 541.073 242.156C551.38 263.496 577.034 272.44 598.374 262.133Z" fill="#093254"/>
<path d="M613.131 229.648C616.511 211.175 604.277 193.459 585.804 190.079C567.331 186.698 549.615 198.933 546.235 217.406C542.855 235.879 555.089 253.594 573.562 256.975C592.035 260.355 609.751 248.12 613.131 229.648Z" fill="white"/>
<path d="M598.626 291.408L522.159 272.243L517.852 289.431L594.318 308.595L598.626 291.408Z" fill="#1DB548"/>
<path d="M528.067 427.445L485.915 416.88L469.17 483.694L511.322 494.258L528.067 427.445Z" fill="#1DB548"/>
<path d="M677.205 464.827L635.053 454.263L618.307 521.077L660.459 531.641L677.205 464.827Z" fill="#1DB548"/>
<path d="M602.642 446.136L560.49 435.571L543.745 502.385L585.897 512.949L602.642 446.136Z" fill="#1DB548"/>
<path d="M660.396 306.883L608.667 293.918L604.359 311.105L656.088 324.07L660.396 306.883Z" fill="#1DB548"/>
<path d="M702.079 357.015L512.789 309.574L511.014 316.655L700.305 364.096L702.079 357.015Z" fill="white"/>
<path d="M603.15 348.204L509.027 324.614L507.252 331.695L601.375 355.285L603.15 348.204Z" fill="white"/>
<path d="M682.202 368.012L619.246 352.233L617.472 359.314L680.427 375.093L682.202 368.012Z" fill="white"/>
<path d="M656.563 377.583L505.249 339.66L503.474 346.741L654.789 384.664L656.563 377.583Z" fill="white"/>
<path d="M675.424 398.31L501.49 354.718L499.716 361.799L673.649 405.391L675.424 398.31Z" fill="white"/>
<path d="M517.801 374.814L497.709 369.778L495.934 376.859L516.027 381.894L517.801 374.814Z" fill="white"/>
<path d="M622.709 401.087L533.927 378.836L532.152 385.917L620.934 408.168L622.709 401.087Z" fill="white"/>
<path d="M683.229 432.249L493.939 384.808L492.164 391.889L681.455 439.33L683.229 432.249Z" fill="white"/>
<path opacity="0.5" d="M520.014 411.817C520.31 405.968 525.426 401.835 532.383 401.835H669.909C678.145 401.835 686.084 407.59 687.644 414.703L728.932 622.716C730.491 629.829 725.063 635.6 716.828 635.6H371.974C363.723 635.6 355.784 629.829 354.224 622.716L320.267 448.035C318.707 440.923 324.135 435.152 332.387 435.152H491.142C507.442 435.152 519.359 425.481 520.014 411.817Z" fill="#1DB548"/>
</svg>
