<svg width="30" height="30" viewBox="0 0 30 30" fill="none" xmlns="http://www.w3.org/2000/svg">
<path fill-rule="evenodd" clip-rule="evenodd" d="M8.2606 2.51605C10.1345 0.900182 12.5245 0.00775911 14.9988 0C20.0422 0 24.2287 3.7497 24.6843 8.58495C27.6691 9.00679 29.9976 11.506 29.9976 14.5732C29.9976 17.9405 27.1891 20.6234 23.7863 20.6234H18.7485C18.4999 20.6234 18.2615 20.5246 18.0857 20.3488C17.9099 20.173 17.8111 19.9346 17.8111 19.686C17.8111 19.4373 17.9099 19.1989 18.0857 19.0231C18.2615 18.8473 18.4999 18.7485 18.7485 18.7485H23.7881C26.2086 18.7485 28.1228 16.8512 28.1228 14.5732C28.1228 12.2934 26.2104 10.3961 23.7863 10.3961H22.8488V9.45863C22.8507 5.29646 19.3635 1.87485 14.9988 1.87485C12.9737 1.88294 11.0182 2.61436 9.48488 3.93719C8.06562 5.15959 7.32317 6.63323 7.32317 7.79001V8.62995L6.48886 8.72181C3.8697 9.00867 1.87485 11.1591 1.87485 13.7202C1.87485 16.4706 4.18092 18.7485 7.08882 18.7485H11.2491C11.4977 18.7485 11.7362 18.8473 11.912 19.0231C12.0878 19.1989 12.1865 19.4373 12.1865 19.686C12.1865 19.9346 12.0878 20.173 11.912 20.3488C11.7362 20.5246 11.4977 20.6234 11.2491 20.6234H7.08882C3.20225 20.6234 0 17.5599 0 13.7202C0 10.4148 2.37356 7.67752 5.51582 6.98383C5.78392 5.36583 6.82446 3.75345 8.2606 2.51605Z" fill="#093254"/>
<path fill-rule="evenodd" clip-rule="evenodd" d="M14.3355 29.7246C14.4226 29.8119 14.526 29.8812 14.6399 29.9285C14.7538 29.9757 14.8759 30.0001 14.9992 30.0001C15.1225 30.0001 15.2446 29.9757 15.3585 29.9285C15.4724 29.8812 15.5758 29.8119 15.6629 29.7246L21.2875 24.1001C21.4635 23.9241 21.5624 23.6853 21.5624 23.4364C21.5624 23.1875 21.4635 22.9487 21.2875 22.7727C21.1114 22.5967 20.8727 22.4978 20.6238 22.4978C20.3748 22.4978 20.1361 22.5967 19.9601 22.7727L15.9366 26.798V10.3124C15.9366 10.0638 15.8379 9.82537 15.6621 9.64957C15.4863 9.47376 15.2478 9.375 14.9992 9.375C14.7506 9.375 14.5121 9.47376 14.3363 9.64957C14.1605 9.82537 14.0618 10.0638 14.0618 10.3124V26.798L10.0383 22.7727C9.86232 22.5967 9.62358 22.4978 9.37465 22.4978C9.12571 22.4978 8.88697 22.5967 8.71095 22.7727C8.53492 22.9487 8.43604 23.1875 8.43604 23.4364C8.43604 23.6853 8.53492 23.9241 8.71095 24.1001L14.3355 29.7246Z" fill="#093254"/>
</svg>
