<svg width="28" height="20" viewBox="0 0 28 20" fill="none" xmlns="http://www.w3.org/2000/svg">
<path d="M27.8146 9.20859C24.7703 3.08282 20.1687 0 14 0C7.82807 0 3.22964 3.08282 0.185431 9.21166C0.0633269 9.45864 0 9.72839 0 10.0015C0 10.2747 0.0633269 10.5444 0.185431 10.7914C3.22964 16.9172 7.83129 20 14 20C20.1719 20 24.7703 16.9172 27.8146 10.7883C28.0618 10.2914 28.0618 9.71472 27.8146 9.20859ZM14 17.7914C8.82033 17.7914 5.02791 15.2822 2.35299 10C5.02791 4.71779 8.82033 2.20859 14 2.20859C19.1796 2.20859 22.9721 4.71779 25.647 10C22.9753 15.2822 19.1829 17.7914 14 17.7914ZM13.8715 4.60123C10.7503 4.60123 8.21984 7.0184 8.21984 10C8.21984 12.9816 10.7503 15.3988 13.8715 15.3988C16.9928 15.3988 19.5232 12.9816 19.5232 10C19.5232 7.0184 16.9928 4.60123 13.8715 4.60123ZM13.8715 13.4356C11.8838 13.4356 10.275 11.8988 10.275 10C10.275 8.10123 11.8838 6.56442 13.8715 6.56442C15.8593 6.56442 17.4681 8.10123 17.4681 10C17.4681 11.8988 15.8593 13.4356 13.8715 13.4356Z" fill="current"/>
</svg>
