<svg width="26" height="26" viewBox="0 0 26 26" fill="none" xmlns="http://www.w3.org/2000/svg">
<path d="M16.0059 16.7355H14.5808C14.3702 16.7355 14.2012 16.9071 14.2012 17.1151C14.2012 17.3258 14.3728 17.4948 14.5808 17.4948H16.0059C16.2166 17.4948 16.3856 17.3232 16.3856 17.1151C16.3882 16.9071 16.2166 16.7355 16.0059 16.7355Z" fill="current"/>
<path d="M24.3974 12.7244L22.3222 11.9212L21.2638 10.858C21.1962 10.7904 21.1078 10.754 21.0194 10.7462V9.90137C21.5187 9.36848 21.8723 8.69001 22.0154 7.92836C22.1038 7.93356 22.1948 7.92577 22.2832 7.90757C22.7903 7.80359 23.157 7.33048 23.157 6.78459V6.50645C23.157 6.18931 23.0296 5.90077 22.8215 5.69281C23.157 3.85498 22.8813 2.35508 22.018 1.35428C21.1832 0.384673 19.8361 -0.0780342 18.1224 0.0129476C16.5413 0.0987305 15.5193 0.829184 15.1969 1.09693C15.02 1.11773 14.7184 1.18011 14.4141 1.36468C13.9902 1.61943 13.4857 2.15492 13.4857 3.2597C13.4857 4.22411 13.6392 5.02735 13.751 5.48225C13.3791 5.66422 13.1295 6.05934 13.1295 6.50905V6.78459C13.1295 7.33048 13.4961 7.80359 14.0032 7.90757C14.0917 7.92577 14.1827 7.93356 14.2711 7.92836C14.4141 8.69001 14.7704 9.36588 15.2671 9.90137V10.7462C15.1787 10.7514 15.0902 10.7878 15.0226 10.858L13.9642 11.9212L11.889 12.7244C11.7096 12.7946 11.538 12.883 11.3793 12.9922C11.2051 13.1117 11.1609 13.3483 11.2779 13.525C11.3507 13.6342 11.4704 13.694 11.5926 13.694C11.6654 13.694 11.7408 13.6732 11.8058 13.629C11.9176 13.5536 12.0373 13.4913 12.1621 13.4419L14.0865 12.6958L15.5583 14.9158C15.7404 15.1913 16.0342 15.3681 16.3593 15.3993C16.3957 15.4019 16.4321 15.4045 16.4685 15.4045C16.6583 15.4045 16.843 15.3551 17.0042 15.2615L16.6896 25.597C16.6791 25.8076 16.843 25.987 17.0536 25.9974C17.0588 25.9974 17.064 25.9974 17.0718 25.9974C17.2747 25.9974 17.4437 25.8362 17.4515 25.6308L17.7454 15.8126H18.5359L18.8298 25.6308C18.8376 25.8362 19.0066 25.9974 19.2094 25.9974C19.2146 25.9974 19.2198 25.9974 19.2276 25.9974C19.4383 25.987 19.5995 25.8102 19.5917 25.597L19.277 15.2615C19.4409 15.3551 19.6229 15.4045 19.8127 15.4045C19.8491 15.4045 19.8856 15.4019 19.922 15.3993C20.2496 15.3655 20.5409 15.1913 20.7229 14.9158L22.1948 12.6958L24.1192 13.4419C24.3896 13.5458 24.6211 13.7122 24.8031 13.9228L23.4872 15.2459C23.0114 15.7242 22.7487 16.3611 22.7487 17.0369V25.6152C22.7487 25.8258 22.9203 25.9974 23.1284 25.9974C23.339 25.9974 23.508 25.8258 23.508 25.6152V17.0369C23.508 16.5664 23.6901 16.1219 24.0229 15.7892L25.1776 14.6272C25.2244 14.7988 25.2452 14.9782 25.2374 15.1627L24.9435 25.6022C24.9357 25.8128 25.0995 25.9922 25.3076 25.9999C25.3128 25.9999 25.318 25.9999 25.3232 25.9999C25.526 25.9999 25.6951 25.8388 25.7029 25.6334L25.9967 15.1939C26.0513 14.1047 25.4038 13.1169 24.3974 12.7244ZM15.0174 7.7308C14.9498 7.36428 14.6118 7.09913 14.2451 7.12773C14.2165 7.13032 14.1853 7.12772 14.1567 7.12253C14.0058 7.09133 13.8914 6.93276 13.8914 6.7508V6.47785C13.8914 6.30109 14.0084 6.14252 14.1593 6.11653C14.2867 6.09313 14.4089 6.13992 14.4843 6.2413C14.5545 6.33228 14.6482 6.39727 14.7548 6.42846C14.9108 6.47526 15.0824 6.44666 15.2151 6.35568C15.4543 6.18671 15.6624 5.98135 15.8392 5.7448C15.964 5.57584 15.9302 5.33668 15.7612 5.21191C15.5921 5.08713 15.3529 5.12093 15.2281 5.28989C15.1397 5.40687 15.0408 5.51605 14.9316 5.60963C14.812 5.50565 14.669 5.43286 14.5181 5.38867C14.4193 5.01435 14.2451 4.21111 14.2451 3.2415C14.2451 2.65922 14.4245 2.2485 14.7808 2.02235C15.0564 1.84558 15.3503 1.84038 15.3503 1.84038C15.4465 1.84038 15.5427 1.80139 15.6129 1.7364C15.6233 1.7286 16.5595 0.857779 18.1614 0.771996C19.6281 0.694011 20.7619 1.06314 21.4381 1.84298C22.1194 2.63062 22.3456 3.83678 22.1012 5.34708C21.9998 5.34448 21.8879 5.35228 21.7761 5.37048L21.4172 4.51005C21.3444 4.33588 21.152 4.2397 20.97 4.28909C20.9336 4.29949 17.4177 5.18851 15.9406 3.35328C15.808 3.18951 15.5687 3.16352 15.4049 3.29609C15.2411 3.42866 15.2151 3.66782 15.3477 3.83158C16.8534 5.70581 19.8439 5.29769 20.8373 5.10013L21.113 5.7656C21.2326 6.05154 21.5369 6.20751 21.8359 6.13732C21.9581 6.10873 22.0778 6.10873 22.122 6.11653C22.2754 6.14772 22.3924 6.30109 22.3924 6.47266V6.7508C22.3924 6.93276 22.278 7.09133 22.1272 7.12253C22.096 7.12772 22.0674 7.13032 22.0388 7.12773C21.6721 7.10173 21.334 7.36688 21.2664 7.7308C20.9882 9.2385 19.6749 10.3329 18.1406 10.3329C16.6089 10.3329 15.2957 9.2385 15.0174 7.7308ZM16.7078 14.4635C16.6115 14.5596 16.4997 14.5648 16.4399 14.5596C16.3827 14.5544 16.2735 14.5284 16.1955 14.4141L14.7132 12.1915L15.3087 11.5962L17.5841 13.5874L16.7078 14.4635ZM17.7818 14.9652L17.8052 14.4427L18.1432 14.1047L18.4813 14.4427L18.5047 14.9652H17.7818ZM18.1458 13.0597L16.0316 11.2115V10.4837C16.6453 10.8736 17.3735 11.0971 18.1458 11.0971C18.9182 11.0971 19.6463 10.8736 20.26 10.4837V11.2115L18.1458 13.0597ZM20.091 14.4115C20.0156 14.5258 19.9064 14.5518 19.8465 14.557C19.7893 14.5622 19.6749 14.557 19.5787 14.4609L18.6997 13.5822L20.9752 11.591L21.5707 12.1863L20.091 14.4115Z" fill="current"/>
<path d="M12.0842 14.7313L10.2248 13.915L9.20801 12.8934C9.1404 12.8258 9.05198 12.7894 8.96357 12.7816V12.1786C9.83213 11.6041 10.4693 10.6917 10.6721 9.60508C10.7709 9.61028 10.8723 9.59988 10.9737 9.57649C11.46 9.45951 11.8137 8.9916 11.8137 8.46131V8.18316C11.8137 7.79584 11.6213 7.44751 11.3248 7.24215C11.4132 6.89382 11.4574 6.54029 11.4574 6.18156C11.4574 4.59588 10.6045 3.19996 9.31723 2.39672C9.30423 1.07359 8.17822 0 6.79736 0C5.41649 0 4.29308 1.07359 4.27748 2.39672C2.99284 3.19996 2.13727 4.59588 2.13727 6.18156C2.13727 6.53769 2.18148 6.89382 2.2673 7.23955C1.97084 7.44231 1.78101 7.79324 1.78101 8.18836V8.46391C1.78101 8.9942 2.13467 9.46471 2.62096 9.57909C2.71978 9.60248 2.8212 9.61288 2.92262 9.60768C3.12806 10.6943 3.76258 11.6067 4.63115 12.1812V12.7842C4.54273 12.7894 4.45431 12.8258 4.3867 12.896L3.36991 13.9176L1.51055 14.7339C0.563974 15.1498 -0.0419415 16.1246 0.00226694 17.1618L0.228511 25.6309C0.236312 25.8362 0.405344 25.9974 0.608182 25.9974C0.613383 25.9974 0.618584 25.9974 0.623785 25.9974C0.834425 25.9896 0.998256 25.8102 0.987854 25.5997L0.761613 17.1306C0.74601 16.7874 0.837025 16.4547 1.00346 16.1662L2.00205 17.3723C2.31931 17.7545 2.49094 18.2354 2.49094 18.7319V25.6153C2.49094 25.8258 2.66257 25.9974 2.87061 25.9974C3.08125 25.9974 3.25029 25.8258 3.25029 25.6153V18.7293C3.25029 18.0534 3.01364 17.3983 2.58456 16.8784L1.52096 15.5969C1.61197 15.5345 1.70819 15.4799 1.80961 15.4331L3.42972 14.7209L4.57654 16.5899C4.68836 16.7744 4.87559 16.8992 5.08883 16.933C5.12784 16.9382 5.16425 16.9408 5.20325 16.9408C5.37749 16.9408 5.54652 16.8784 5.68175 16.764L6.40728 16.1428V25.6101C6.40728 25.8206 6.57892 25.9922 6.78696 25.9922C6.9976 25.9922 7.16663 25.8206 7.16663 25.6101V16.1428L7.89217 16.764C8.02739 16.8784 8.19642 16.9408 8.37066 16.9408C8.40966 16.9408 8.44607 16.9382 8.48508 16.933C8.69832 16.8992 8.88555 16.7744 8.99738 16.5899L10.1442 14.7209L11.7643 15.4331C11.8657 15.4773 11.9619 15.5345 12.053 15.5969L10.9894 16.8784C10.5603 17.3957 10.3236 18.0534 10.3236 18.7293V25.6127C10.3236 25.8232 10.4953 25.9948 10.7033 25.9948C10.9113 25.9948 11.083 25.8232 11.083 25.6127V18.7293C11.083 18.2328 11.2572 17.7493 11.5719 17.3697L12.5705 16.1636C12.7369 16.4495 12.8253 16.7848 12.8123 17.128L12.5861 25.5971C12.5783 25.8076 12.7395 25.987 12.9501 25.9948C12.9553 25.9948 12.9605 25.9948 12.9657 25.9948C13.1686 25.9948 13.3376 25.8336 13.3454 25.6283L13.5716 17.1592C13.6393 16.122 13.0307 15.1472 12.0842 14.7313ZM6.79996 0.761648C7.61131 0.761648 8.29524 1.27894 8.49548 1.9782C7.97018 1.78064 7.39807 1.67147 6.79996 1.67147C6.20185 1.67147 5.62974 1.78064 5.10444 1.9782C5.30727 1.27894 5.99121 0.761648 6.79996 0.761648ZM3.67416 9.39972C3.60655 9.03319 3.26849 8.76805 2.90182 8.79664C2.87061 8.79924 2.83681 8.79664 2.803 8.78884C2.65737 8.75505 2.54815 8.59648 2.54815 8.41972V8.14677C2.54815 7.97001 2.66517 7.81144 2.816 7.78544C2.94343 7.76205 3.06565 7.80884 3.14106 7.91022C3.21128 8.0012 3.30489 8.06619 3.41151 8.09998C3.56754 8.14677 3.73918 8.11818 3.8718 8.0272C4.10585 7.86083 4.31389 7.66067 4.48812 7.42672C4.61554 7.25775 4.58174 7.0186 4.4127 6.89382C4.24367 6.76645 4.00443 6.80024 3.8796 6.96921C3.79379 7.08358 3.69497 7.18756 3.58835 7.28114C3.42452 7.14077 3.22428 7.05499 3.01364 7.029C2.94083 6.74305 2.90442 6.44931 2.90442 6.15297C2.90442 4.10458 4.65195 2.43571 6.79996 2.43571C8.94797 2.43571 10.6955 4.10198 10.6955 6.15297C10.6955 6.44671 10.6591 6.74045 10.5863 7.0264C10.4849 7.03419 10.3834 7.04979 10.2898 7.07579L10.0038 6.83923C9.86074 6.71966 9.6787 6.66247 9.49667 6.67287C8.93756 6.70666 6.06922 6.78204 4.59734 5.0222C4.46211 4.86103 4.22287 4.84023 4.06164 4.97541C3.90041 5.11058 3.8796 5.34973 4.01483 5.5109C4.74037 6.37913 5.80397 6.96661 7.17703 7.25515C8.22763 7.47611 9.16381 7.45531 9.53048 7.43451L9.97776 7.80104C10.1 7.90242 10.2742 7.91542 10.412 7.83743C10.4771 7.80104 10.6929 7.76985 10.7865 7.78804C10.9399 7.81924 11.057 7.97261 11.057 8.14677V8.42492C11.057 8.60168 10.9477 8.76025 10.8021 8.79404C10.7683 8.80184 10.7345 8.80444 10.7033 8.80184C10.3392 8.77585 9.99856 9.04099 9.93095 9.40492C9.6527 10.9126 8.33945 12.007 6.80516 12.007C5.26567 12.0018 3.95242 10.9074 3.67416 9.39972ZM5.22146 16.0804L4.07464 14.2218L4.66235 13.6343L6.24085 15.2122L5.22146 16.0804ZM6.79996 14.6949L5.39829 13.2937V12.5061C5.83517 12.6725 6.30847 12.7634 6.79996 12.7634C7.29145 12.7634 7.76474 12.6725 8.20162 12.5061V13.2937L6.79996 14.6949ZM8.38106 16.0804L7.36166 15.2122L8.94016 13.6343L9.52787 14.2218L8.38106 16.0804Z" fill="current"/>
<path d="M5.37474 18.4147H4.30594C4.0953 18.4147 3.92627 18.5863 3.92627 18.7943C3.92627 19.0024 4.0979 19.174 4.30594 19.174H5.37474C5.58538 19.174 5.75442 19.0024 5.75442 18.7943C5.75442 18.5863 5.58538 18.4147 5.37474 18.4147Z" fill="current"/>
</svg>
