<svg width="26" height="26" viewBox="0 0 26 26" fill="none" xmlns="http://www.w3.org/2000/svg">
<path d="M9.53418 8.66577C9.29498 8.66577 9.09998 8.86077 9.09998 9.09997C9.09998 9.33917 9.29498 9.53417 9.53418 9.53417C9.77337 9.53417 9.96838 9.33917 9.96838 9.09997C9.96578 8.86077 9.77337 8.66577 9.53418 8.66577Z" fill="current"/>
<path d="M9.53418 10.4C9.29498 10.4 9.09998 10.595 9.09998 10.8342C9.09998 11.0734 9.29498 11.2684 9.53418 11.2684C9.77337 11.2684 9.96838 11.0734 9.96838 10.8342C9.96838 10.595 9.77337 10.4 9.53418 10.4Z" fill="current"/>
<path d="M9.53418 13C9.77398 13 9.96838 12.8056 9.96838 12.5658C9.96838 12.326 9.77398 12.1316 9.53418 12.1316C9.29437 12.1316 9.09998 12.326 9.09998 12.5658C9.09998 12.8056 9.29437 13 9.53418 13Z" fill="current"/>
<path d="M9.53418 13.8658C9.29498 13.8658 9.09998 14.0608 9.09998 14.3C9.09998 14.5392 9.29498 14.7342 9.53418 14.7342C9.77337 14.7342 9.96838 14.5392 9.96838 14.3C9.96578 14.0608 9.77337 13.8658 9.53418 13.8658Z" fill="current"/>
<path d="M11.2659 8.66577C11.0267 8.66577 10.8317 8.86077 10.8317 9.09997C10.8317 9.33917 11.0267 9.53417 11.2659 9.53417C11.5051 9.53417 11.7001 9.33917 11.7001 9.09997C11.7001 8.86077 11.5051 8.66577 11.2659 8.66577Z" fill="current"/>
<path d="M11.2659 10.4C11.0267 10.4 10.8317 10.595 10.8317 10.8342C10.8317 11.0734 11.0267 11.2684 11.2659 11.2684C11.5051 11.2684 11.7001 11.0734 11.7001 10.8342C11.7001 10.595 11.5051 10.4 11.2659 10.4Z" fill="current"/>
<path d="M11.2659 12.1342C11.0267 12.1342 10.8317 12.3292 10.8317 12.5684C10.8317 12.8076 11.0267 13.0026 11.2659 13.0026C11.5051 13.0026 11.7001 12.8076 11.7001 12.5684C11.7001 12.3266 11.5051 12.1342 11.2659 12.1342Z" fill="current"/>
<path d="M11.2659 13.8658C11.0267 13.8658 10.8317 14.0608 10.8317 14.3C10.8317 14.5392 11.0267 14.7342 11.2659 14.7342C11.5051 14.7342 11.7001 14.5392 11.7001 14.3C11.7001 14.0608 11.5051 13.8658 11.2659 13.8658Z" fill="current"/>
<path d="M13 8.66577C12.7608 8.66577 12.5658 8.86077 12.5658 9.09997C12.5658 9.33917 12.7608 9.53417 13 9.53417C13.2392 9.53417 13.4342 9.33917 13.4342 9.09997C13.4342 8.86077 13.2392 8.66577 13 8.66577Z" fill="current"/>
<path d="M13 10.4C12.7608 10.4 12.5658 10.595 12.5658 10.8342C12.5658 11.0734 12.7608 11.2684 13 11.2684C13.2392 11.2684 13.4342 11.0734 13.4342 10.8342C13.4342 10.595 13.2392 10.4 13 10.4Z" fill="current"/>
<path d="M13 12.1342C12.7608 12.1342 12.5658 12.3292 12.5658 12.5684C12.5658 12.8076 12.7608 13.0026 13 13.0026C13.2392 13.0026 13.4342 12.8076 13.4342 12.5684C13.4342 12.3266 13.2392 12.1342 13 12.1342Z" fill="current"/>
<path d="M13 13.8658C12.7608 13.8658 12.5658 14.0608 12.5658 14.3C12.5658 14.5392 12.7608 14.7342 13 14.7342C13.2392 14.7342 13.4342 14.5392 13.4342 14.3C13.4342 14.0608 13.2392 13.8658 13 13.8658Z" fill="current"/>
<path d="M14.7342 8.66577C14.495 8.66577 14.3 8.86077 14.3 9.09997C14.3 9.33917 14.495 9.53417 14.7342 9.53417C14.9734 9.53417 15.1684 9.33917 15.1684 9.09997C15.1658 8.86077 14.9734 8.66577 14.7342 8.66577Z" fill="current"/>
<path d="M11.2659 6.9342C11.0267 6.9342 10.8317 7.1292 10.8317 7.3684C10.8317 7.60761 11.0267 7.80261 11.2659 7.80261C11.5051 7.80261 11.7001 7.60761 11.7001 7.3684C11.7001 7.1266 11.5051 6.9342 11.2659 6.9342Z" fill="current"/>
<path d="M13 6.9342C12.7608 6.9342 12.5658 7.1292 12.5658 7.3684C12.5658 7.60761 12.7608 7.80261 13 7.80261C13.2392 7.80261 13.4342 7.60761 13.4342 7.3684C13.4342 7.1266 13.2392 6.9342 13 6.9342Z" fill="current"/>
<path d="M14.7342 7.80004C14.974 7.80004 15.1684 7.60564 15.1684 7.36584C15.1684 7.12604 14.974 6.93164 14.7342 6.93164C14.4944 6.93164 14.3 7.12604 14.3 7.36584C14.3 7.60564 14.4944 7.80004 14.7342 7.80004Z" fill="current"/>
<path d="M14.7342 10.4C14.495 10.4 14.3 10.595 14.3 10.8342C14.3 11.0734 14.495 11.2684 14.7342 11.2684C14.9734 11.2684 15.1684 11.0734 15.1684 10.8342C15.1684 10.595 14.9734 10.4 14.7342 10.4Z" fill="current"/>
<path d="M14.7342 13C14.974 13 15.1684 12.8056 15.1684 12.5658C15.1684 12.326 14.974 12.1316 14.7342 12.1316C14.4944 12.1316 14.3 12.326 14.3 12.5658C14.3 12.8056 14.4944 13 14.7342 13Z" fill="current"/>
<path d="M14.7342 13.8658C14.495 13.8658 14.3 14.0608 14.3 14.3C14.3 14.5392 14.495 14.7342 14.7342 14.7342C14.9734 14.7342 15.1684 14.5392 15.1684 14.3C15.1658 14.0608 14.9734 13.8658 14.7342 13.8658Z" fill="current"/>
<path d="M16.4658 9.53417C16.705 9.53417 16.9 9.33917 16.9 9.09997C16.9 8.86077 16.705 8.66577 16.4658 8.66577C16.2266 8.66577 16.0316 8.86077 16.0316 9.09997C16.0342 9.33917 16.2266 9.53417 16.4658 9.53417Z" fill="current"/>
<path d="M16.4658 10.4C16.2266 10.4 16.0316 10.595 16.0316 10.8342C16.0316 11.0734 16.2266 11.2684 16.4658 11.2684C16.705 11.2684 16.9 11.0734 16.9 10.8342C16.9 10.595 16.705 10.4 16.4658 10.4Z" fill="current"/>
<path d="M16.4658 12.1342C16.2266 12.1342 16.0316 12.3292 16.0316 12.5684C16.0316 12.8076 16.2266 13.0026 16.4658 13.0026C16.705 13.0026 16.9 12.8076 16.9 12.5684C16.9 12.3266 16.705 12.1342 16.4658 12.1342Z" fill="current"/>
<path d="M16.4658 13.8658C16.2266 13.8658 16.0316 14.0608 16.0316 14.3C16.0316 14.5392 16.2266 14.7342 16.4658 14.7342C16.705 14.7342 16.9 14.5392 16.9 14.3C16.9 14.0608 16.705 13.8658 16.4658 13.8658Z" fill="current"/>
<path d="M25.5658 6.5H19.0658V0.4342C19.0658 0.195 18.8734 0 18.6342 0H7.3658C7.1266 0 6.9316 0.1924 6.9316 0.4316V6.5H0.4316C0.195 6.5 0 6.6924 0 6.9316V22.5316C0 22.7708 0.1924 22.9658 0.4316 22.9658H1.3364C1.313 23.1088 1.3 23.2544 1.3 23.4V25.5658C1.3 25.805 1.4924 26 1.7316 26H24.2658C24.505 26 24.7 25.8076 24.7 25.5658V23.4C24.7 23.2544 24.687 23.1088 24.661 22.9658H25.5658C25.805 22.9658 26 22.7734 26 22.5342V6.9342C26 6.695 25.805 6.5 25.5658 6.5ZM18.6342 18.6342C18.6342 19.1126 18.2468 19.5 17.7684 19.5C17.2874 19.5 16.9 19.1126 16.9 18.6342C16.9 18.1558 17.2874 17.7684 17.7658 17.7684C18.2442 17.7684 18.6316 18.1558 18.6342 18.6342ZM8.2342 17.7658C8.7126 17.7658 9.1 18.1532 9.1 18.6316C9.1 19.11 8.7126 19.5 8.2342 19.5C7.7558 19.5 7.3684 19.1126 7.3684 18.6342C7.3684 18.1558 7.7558 17.7684 8.2342 17.7658ZM5.6342 25.1342H2.1658V23.4C2.1658 22.4432 2.9406 21.6658 3.9 21.6658C4.8568 21.6658 5.6342 22.4406 5.6342 23.4V25.1342ZM3.0342 19.9342C3.0342 19.4558 3.4216 19.0684 3.9 19.0684C4.3784 19.0684 4.7658 19.4558 4.7658 19.9342C4.7658 20.4126 4.3784 20.8 3.9 20.8C3.4216 20.8 3.0342 20.4126 3.0342 19.9342ZM5.6992 21.528C5.5354 21.3694 5.3534 21.2342 5.1532 21.125C5.8136 20.4334 5.7876 19.3362 5.096 18.6732C4.4044 18.0128 3.3072 18.0388 2.6442 18.7304C2.0046 19.4012 2.0046 20.4542 2.6442 21.125C2.2334 21.3538 1.8876 21.6918 1.651 22.1H0.8658V7.3658H6.9316V17.498C6.3362 18.1662 6.357 19.1802 6.9784 19.8224C6.3284 20.1838 5.863 20.8026 5.6992 21.528ZM9.9658 25.1342H6.5V22.1C6.5 21.1432 7.2748 20.3658 8.2342 20.3658C9.191 20.3658 9.9684 21.1406 9.9684 22.1V25.1342H9.9658ZM15.1658 25.1342H10.8342V22.1C10.8342 20.904 11.804 19.9342 13 19.9342C14.196 19.9342 15.1658 20.904 15.1658 22.1V25.1342ZM11.7 17.7658C11.7 17.0482 12.2824 16.4658 13 16.4658C13.7176 16.4658 14.3 17.0482 14.3 17.7658C14.3 18.4834 13.7176 19.0658 13 19.0658C12.2824 19.0658 11.7 18.4834 11.7 17.7658ZM15.639 20.6102C15.3478 20.098 14.9162 19.682 14.3962 19.409C15.3114 18.6394 15.4284 17.2718 14.6588 16.3566C13.8866 15.4414 12.5216 15.3244 11.6064 16.094C10.6912 16.8662 10.5742 18.2312 11.3438 19.1464C11.4244 19.24 11.5102 19.3284 11.6064 19.409C11.0838 19.682 10.6522 20.098 10.3636 20.6102C10.1348 20.2852 9.8358 20.0174 9.49 19.825C10.1556 19.1464 10.1426 18.057 9.4614 17.3914C9.0246 16.9624 8.3928 16.8012 7.8026 16.9624V0.8658H18.2026V16.9598C18.0622 16.9208 17.9166 16.9 17.7684 16.8974C16.8142 16.8948 16.0368 17.667 16.0342 18.6212C16.0342 19.0684 16.2058 19.4974 16.5126 19.8198C16.1668 20.0174 15.8678 20.2852 15.639 20.6102ZM19.5 23.4V25.1342H16.0342V22.1C16.0342 21.1432 16.809 20.3658 17.7684 20.3658C18.7252 20.3658 19.5026 21.1406 19.5026 22.1V23.4H19.5ZM23.8342 25.1342H20.3658V23.4C20.3658 22.4432 21.1406 21.6658 22.1 21.6658C23.0568 21.6658 23.8342 22.4406 23.8342 23.4V25.1342ZM21.2342 19.9342C21.2342 19.4558 21.6216 19.0684 22.1 19.0684C22.5784 19.0684 22.9658 19.4558 22.9658 19.9342C22.9658 20.4126 22.5784 20.8 22.1 20.8C21.6216 20.8 21.2342 20.4126 21.2342 19.9342ZM25.1342 22.1H24.349C24.1124 21.6918 23.7692 21.3538 23.3558 21.1224C24.0162 20.4308 23.9902 19.3336 23.2986 18.6706C22.607 18.0076 21.5098 18.0362 20.8468 18.7278C20.2072 19.3986 20.2072 20.4516 20.8468 21.1224C20.6492 21.2316 20.4646 21.3694 20.3008 21.5254C20.137 20.8 19.6716 20.1812 19.0216 19.8224C19.643 19.1776 19.6638 18.1662 19.0684 17.498V7.3658H25.1342V22.1Z" fill="current"/>
<path d="M20.8 16.9C21.0392 16.9 21.2342 16.705 21.2342 16.4658V10.4C21.2342 10.1608 21.0392 9.96582 20.8 9.96582C20.5608 9.96582 20.3658 10.1608 20.3658 10.4V16.4658C20.3658 16.705 20.5608 16.9 20.8 16.9Z" fill="current"/>
<path d="M23.4 16.9C23.6392 16.9 23.8342 16.705 23.8342 16.4658V10.4C23.8342 10.1608 23.6392 9.96582 23.4 9.96582C23.1608 9.96582 22.9658 10.1608 22.9658 10.4V16.4658C22.9658 16.705 23.1608 16.9 23.4 16.9Z" fill="current"/>
<path d="M2.60003 9.96582C2.36083 9.96582 2.16583 10.1608 2.16583 10.4V16.4658C2.16583 16.705 2.36083 16.9 2.60003 16.9C2.83923 16.9 3.03423 16.705 3.03423 16.4658V10.4C3.03423 10.1608 2.83923 9.96582 2.60003 9.96582Z" fill="current"/>
<path d="M5.20001 9.96582C4.96081 9.96582 4.76581 10.1608 4.76581 10.4V16.4658C4.76581 16.705 4.96081 16.9 5.20001 16.9C5.43921 16.9 5.63421 16.705 5.63421 16.4658V10.4C5.63421 10.1608 5.43921 9.96582 5.20001 9.96582Z" fill="current"/>
<path d="M16.0342 5.63423V2.16583C16.0342 1.92663 15.8418 1.73163 15.6026 1.73163H10.4C10.1608 1.73163 9.96582 1.92403 9.96582 2.16323V5.62903C9.96582 5.86823 10.1608 6.06323 10.4 6.06323H15.6C15.8392 6.06583 16.0342 5.87343 16.0342 5.63423ZM15.1658 5.20003H10.8342V2.60003H15.1684V5.20003H15.1658Z" fill="current"/>
</svg>
