<svg width="28" height="30" viewBox="0 0 28 30" fill="none" xmlns="http://www.w3.org/2000/svg">
<path fill-rule="evenodd" clip-rule="evenodd" d="M16.77 20.64C16.785 20.625 16.7925 20.61 16.8 20.595C16.8075 20.58 16.815 20.565 16.83 20.55C16.875 20.49 16.9275 20.4225 16.98 20.355C17.0325 20.2875 17.085 20.22 17.13 20.16V20.13C17.85 19.32 18.75 18.72 19.74 18.36L19.83 18.33C19.98 18.27 20.1 18.24 20.25 18.21C20.28 18.195 20.31 18.1875 20.34 18.18C20.37 18.1725 20.4 18.165 20.43 18.15L20.79 18.06C20.835 18.045 20.8875 18.0375 20.94 18.03L20.94 18.03C20.9925 18.0225 21.045 18.015 21.09 18C21.135 18 21.18 17.9925 21.225 17.985C21.27 17.9775 21.315 17.97 21.36 17.97C21.57 17.94 21.75 17.94 21.96 17.94C22.11 17.94 22.23 17.94 22.35 17.97H22.41C23.04 18.03 23.67 18.15 24.24 18.39C24.51 18.48 24.78 18.36 24.9 18.12C24.93 18.06 24.93 18 24.93 17.94V1.5C24.93 1.23 24.72 0.99 24.42 0.99H22.92V0.51C23.01 0.21 22.77 0 22.5 0C22.23 0 21.99 0.21 21.99 0.51V1.02H21V0.51C21 0.21 20.79 0 20.49 0C20.22 0 19.98 0.21 19.98 0.51V1.02H18.99V0.51C18.99 0.24 18.78 0 18.48 0C18.21 0 18 0.21 18 0.51V1.02H17.01V0.51C17.01 0.21 16.77 0 16.5 0C16.23 0 15.99 0.21 15.99 0.51V1.02H9V0.51C9 0.21 8.79 0 8.49 0C8.22 0 7.98 0.21 7.98 0.51V1.02H6.99V0.51C6.99 0.24 6.78 0 6.48 0C6.21 0 6 0.21 6 0.51V1.02H5.01V0.51C5.01 0.21 4.77 0 4.5 0C4.23 0 3.99 0.21 3.99 0.51V1.02H3V0.51C3 0.21 2.79 0 2.49 0C2.22 0 2.01 0.21 2.01 0.51V1.02H0.51C0.21 0.99 0 1.23 0 1.5V24.99C0 25.29 0.21 25.5 0.51 25.5H15.03C15.3 25.5 15.54 25.29 15.54 24.99V24.96V24.9C15.54 24.825 15.5325 24.7575 15.525 24.69L15.525 24.69C15.5175 24.6225 15.51 24.555 15.51 24.48C15.51 24 15.57 23.49 15.69 23.01C15.81 22.53 15.96 22.08 16.2 21.63C16.215 21.615 16.2225 21.5925 16.23 21.57C16.2375 21.5475 16.245 21.525 16.26 21.51C16.29 21.45 16.3275 21.39 16.365 21.33L16.365 21.33C16.4025 21.27 16.44 21.21 16.47 21.15C16.5 21.12 16.53 21.06 16.53 21.03C16.59 20.91 16.68 20.76 16.77 20.64ZM15 14.49V11.49H18V14.49H15ZM15 10.5V7.5H18V10.5H15ZM21.99 11.49V14.49H18.99V11.49H21.99ZM18.99 10.5V7.5H21.99V10.5H18.99ZM21.99 17.01C21.75 17.01 21.54 17.01 21.3 17.04C21.2582 17.04 21.2165 17.0465 21.1717 17.0534C21.12 17.0614 21.0643 17.07 21 17.07C20.94 17.085 20.88 17.0925 20.82 17.1C20.76 17.1075 20.7 17.115 20.64 17.13C20.52 17.16 20.4 17.19 20.25 17.22C20.205 17.235 20.1675 17.2425 20.13 17.25C20.0925 17.2575 20.055 17.265 20.01 17.28C19.86 17.31 19.71 17.37 19.56 17.43L19.56 17.43L19.56 17.43C19.5473 17.43 19.5399 17.43 19.5334 17.4323C19.5246 17.4354 19.5173 17.4428 19.5 17.46C19.32 17.52 19.14 17.58 18.96 17.67V15.54H21.96V17.01H21.99ZM0.99 2.01H1.98V2.52C1.98 2.79 2.19 3.03 2.49 3.03C2.79 3 3 2.79 3 2.49V2.01H3.99V2.52C3.99 2.79 4.2 3.03 4.5 3.03C4.77 3.03 5.01 2.82 5.01 2.52V2.01H6V2.52C6 2.79 6.21 3.03 6.51 3.03C6.78 3.03 7.02 2.82 7.02 2.52V2.01H8.01V2.52C8.01 2.79 8.22 3.03 8.52 3.03C8.79 3.03 9.03 2.82 9.03 2.52V2.01H16.02V2.52C16.02 2.79 16.23 3.03 16.53 3.03C16.8 3.03 17.04 2.82 17.04 2.52V2.01H18V2.52C18 2.79 18.21 3.03 18.51 3.03C18.78 3.03 19.02 2.82 19.02 2.52V2.01H20.01V2.52C20.01 2.79 20.22 3.03 20.52 3.03C20.79 3.03 21.03 2.82 21.03 2.52V2.01H22.02V2.52C22.02 2.79 22.23 3.03 22.53 3.03C22.8 3.03 23.04 2.82 23.04 2.52V2.01H24V4.5H0.99V2.01ZM14.49 24.51H0.99V5.49H24V17.28C23.67 17.19 23.34 17.13 23.01 17.07V6.99C23.01 6.72 22.8 6.48 22.5 6.48H2.49C2.22 6.48 1.98 6.69 1.98 6.99V22.98C1.98 23.25 2.19 23.49 2.49 23.49H14.55C14.52 23.82 14.49 24.18 14.49 24.51ZM11.01 18.51V15.51H14.01V18.51H11.01ZM14.01 19.5V22.5H11.01V19.5H14.01ZM11.01 14.49V11.49H14.01V14.49H11.01ZM11.01 10.5V7.5H14.01V10.5H11.01ZM6.99 18.51V15.51H9.99V18.51H6.99ZM9.99 19.5V22.5H6.99V19.5H9.99ZM6.99 14.49V11.49H9.99V14.49H6.99ZM6.99 10.5V7.5H9.99V10.5H6.99ZM3 18.51V15.51H6V18.51H3ZM6 19.5V22.5H3V19.5H6ZM3 14.49V11.49H6V14.49H3ZM3 10.5V7.5H6V10.5H3ZM15.54 20.73C15.525 20.745 15.5175 20.76 15.51 20.775C15.5025 20.79 15.495 20.805 15.48 20.82C15.45 20.88 15.4125 20.9475 15.375 21.015C15.3375 21.0825 15.3 21.15 15.27 21.21C15.255 21.24 15.24 21.2775 15.225 21.315C15.21 21.3525 15.195 21.39 15.18 21.42C15.12 21.54 15.06 21.66 15.03 21.78C15.03 21.78 15.03 21.81 15 21.81V19.5H16.44C16.08 19.89 15.78 20.28 15.54 20.73ZM15 18.51V15.51H18V18.18C17.91 18.24 17.8275 18.3 17.7451 18.36L17.745 18.36C17.6625 18.42 17.58 18.48 17.49 18.54H15V18.51ZM21.99 18.99C18.96 18.99 16.5 21.45 16.5 24.51C16.5 27.57 18.96 30 21.99 30C25.02 30 27.48 27.54 27.48 24.51C27.51 21.45 25.05 18.99 21.99 18.99ZM21.99 29.01C19.5 29.01 17.49 27 17.49 24.51C17.49 22.02 19.5 20.01 21.99 20.01C24.48 20.01 26.49 22.02 26.49 24.51C26.49 26.97 24.48 29.01 21.99 29.01ZM21.99 23.82L24.15 21.66C24.33 21.45 24.66 21.45 24.84 21.66C25.02 21.87 25.02 22.17 24.84 22.38L22.35 24.87C22.14 25.08 21.84 25.08 21.63 24.87L20.13 23.37C19.95 23.19 19.95 22.86 20.13 22.68C20.34 22.5 20.64 22.5 20.85 22.68L21.99 23.82Z" fill="white"/>
</svg>
