<?xml version="1.0" encoding="utf-8"?>
<!-- Generator: Adobe Illustrator 25.4.1, SVG Export Plug-In . SVG Version: 6.00 Build 0)  -->
<svg version="1.1" id="Camada_1" xmlns="http://www.w3.org/2000/svg" xmlns:xlink="http://www.w3.org/1999/xlink" x="0px" y="0px"
	 viewBox="0 0 1080 1080" style="enable-background:new 0 0 1080 1080;" xml:space="preserve">
<style type="text/css">
	.st0{fill:#FFFFFF;stroke:#FFFFFF;stroke-width:10;stroke-miterlimit:10;}
	.st1{fill:none;stroke:#FFFFFF;stroke-width:10;stroke-miterlimit:10;}
</style>
<g id="Final">
	<g>
		<path class="st0" d="M635.56,721.39c-77.65,41.03-176.05,28.87-241.4-36.48c-65.35-65.35-77.51-163.75-36.48-241.4
			c43.28,45.31,89.33,92.42,137.4,140.49S590.25,678.11,635.56,721.39z"/>
		<path class="st0" d="M635.56,721.39c-77.65,41.03-176.05,28.87-241.4-36.48c-65.35-65.35-77.51-163.75-36.48-241.4
			c43.28,45.31,89.33,92.42,137.4,140.49S590.25,678.11,635.56,721.39z"/>
	</g>
	<path class="st1" d="M759.11,796.92c6.74-5.75,13.29-11.8,19.66-18.17c6.36-6.36,12.42-12.92,18.16-19.65
		c6.53-7.61,12.64-15.46,18.38-23.49c94.2-132.12,82.01-316.76-36.54-435.31s-303.19-130.73-435.31-36.54
		C161.28,96.12,25.96-8.99,8.5,8.47c8.26-8.26,134.47,103.62,311.47,273.66c-6.73,5.74-13.29,11.8-19.65,18.16
		c-6.37,6.37-12.42,12.92-18.17,19.66C112.11,142.95,0.22,16.75,8.5,8.47c-17.46,17.46,87.64,152.8,255.27,334.97
		c-94.18,132.12-82,316.75,36.55,435.3c118.55,118.55,303.18,130.72,435.3,36.55c182.17,167.63,317.5,272.72,334.96,255.26
		C1062.3,1078.83,936.11,966.95,759.11,796.92z M323.63,755.43c-105.3-105.3-117.61-268.38-36.94-387.2
		c1.71,1.83,3.42,3.66,5.13,5.51c6.72,7.21,13.54,14.49,20.43,21.85c14.77,15.69,29.92,31.7,45.43,47.91
		c43.28,45.31,89.33,92.42,137.4,140.49s95.18,94.12,140.49,137.4c16.21,15.51,32.21,30.65,47.9,45.42
		c7.36,6.89,14.63,13.71,21.86,20.44c1.85,1.71,3.69,3.42,5.51,5.13C592.01,873.05,428.93,860.73,323.63,755.43z M735.26,773.92
		c-1.77-1.7-3.54-3.4-5.31-5.13c-6.93-6.69-13.93-13.46-21-20.33c-14.98-14.53-30.26-29.4-45.79-44.6l-0.01-0.01
		c-46.3-45.26-94.86-93.29-144.76-143.18c-49.89-49.89-97.92-98.46-143.18-144.76l-0.01-0.01c-15.2-15.53-30.07-30.81-44.61-45.8
		c-6.85-7.06-13.63-14.06-20.31-20.99c-1.72-1.77-3.43-3.54-5.13-5.31c5.81-6.93,11.97-13.69,18.49-20.2
		c6.52-6.52,13.27-12.68,20.2-18.49c7.9-6.62,16.04-12.75,24.42-18.44c118.81-80.68,281.9-68.38,387.21,36.93
		s117.61,268.4,36.93,387.21c-5.69,8.38-11.83,16.52-18.44,24.42c-5.81,6.93-11.97,13.69-18.49,20.2
		C748.94,761.95,742.19,768.11,735.26,773.92z"/>
	<path class="st1" d="M1070.58,1070.55c-8.27,8.27-134.47-103.6-311.47-273.63c6.74-5.75,13.29-11.8,19.66-18.17
		c6.36-6.36,12.42-12.92,18.16-19.65c6.53-7.61,12.64-15.46,18.38-23.49C982.94,917.78,1088.04,1053.09,1070.58,1070.55z"/>
	<path class="st1" d="M1070.58,1070.55c-8.27,8.27-134.47-103.6-311.47-273.63c6.74-5.75,13.29-11.8,19.66-18.17
		c6.36-6.36,12.42-12.92,18.16-19.65C966.96,936.1,1078.84,1062.29,1070.58,1070.55z"/>
	<path class="st0" d="M684.93,684.91c-6.91,6.91-14.19,13.22-21.78,18.96l-0.01-0.01c-46.3-45.26-94.86-93.29-144.76-143.18
		c-49.89-49.89-97.92-98.46-143.18-144.76l-0.01-0.01c5.74-7.59,12.05-14.87,18.96-21.78c6.91-6.91,14.19-13.22,21.77-18.95
		c8.83-6.64,18.05-12.48,27.6-17.52c77.65-41.06,176.05-28.89,241.41,36.47s77.53,163.77,36.47,241.41
		c-5.04,9.55-10.88,18.77-17.52,27.6C698.16,670.71,691.84,678,684.93,684.91z"/>
</g>
</svg>
