<svg width="30" height="30" viewBox="0 0 30 30" fill="none" xmlns="http://www.w3.org/2000/svg">
<path d="M16.1986 29.9886C16.0556 29.9886 15.9237 29.9227 15.8357 29.8018L13.3393 26.3952C12.6135 25.3952 12.0967 24.2853 11.7998 23.0765L10.5461 17.8787C10.3042 16.8568 10.755 15.7688 11.6898 15.3073C12.0087 15.1535 12.3386 15.0765 12.6795 15.0765C13.4823 15.0765 14.2301 15.5271 14.615 16.2414L15.4178 17.7249C15.4838 17.8458 15.5168 17.9666 15.6487 17.9227C15.7807 17.8897 15.7367 17.8018 15.7367 17.6699V14.7798V14.7359V14.6919V8.05456C15.7367 6.92269 16.5835 5.94467 17.7162 5.86775C18.9478 5.77983 19.9816 6.76885 19.9816 7.97764V11.6809L20.3335 11.5271C20.6084 11.4062 20.9053 11.3403 21.2132 11.3403C22.038 11.3403 22.7968 11.8238 23.1377 12.582L23.2477 12.8238L23.4786 12.6809C24.1715 12.2743 25.0622 12.2743 25.777 12.7908C26.1289 13.0436 26.3929 13.4062 26.5468 13.8128L26.6238 14.0216L26.8657 13.8897C27.0197 13.8018 27.1956 13.7359 27.3716 13.6919C28.1524 13.5051 28.9332 13.7579 29.45 14.3293C29.8239 14.7359 29.9999 15.2853 29.9999 15.8348V21.615C29.9999 23.2963 29.747 24.9557 29.2411 26.5601L28.2624 29.6809C28.2074 29.8677 28.0314 29.9996 27.8335 29.9996C27.7895 29.9996 27.7455 29.9886 27.7015 29.9776C27.4706 29.9007 27.3386 29.648 27.4046 29.4172L28.3833 26.2963C28.8562 24.7798 29.0981 23.2084 29.0981 21.615V15.8018C29.0981 15.1645 28.6363 14.593 27.9984 14.5271C27.2726 14.4612 26.6568 15.0326 26.6568 15.7469V17.7579C26.6568 17.9776 26.5028 18.1864 26.2829 18.2304C25.997 18.2743 25.755 18.0655 25.755 17.7908V14.571C25.755 13.9337 25.2931 13.3623 24.6553 13.2963C23.9295 13.2304 23.3137 13.8018 23.3137 14.5161V17.7579C23.3137 17.9776 23.1597 18.1864 22.9398 18.2304C22.6538 18.2743 22.4119 18.0655 22.4119 17.7908V13.5161C22.4119 12.8787 21.95 12.3073 21.3122 12.2414C20.5864 12.1754 19.9706 12.7469 19.9706 13.4612V17.7688C19.9706 17.9886 19.8166 18.1974 19.5967 18.2414C19.3107 18.2853 19.0688 18.0765 19.0688 17.8018V8.03258C19.0688 7.39522 18.6069 6.82379 17.9691 6.75786C17.2433 6.69192 16.6275 7.26335 16.6275 7.97764V14.7029V14.7359V14.7798V20.0875C16.6275 20.2963 16.4845 20.4721 16.2865 20.5271C16.2536 20.5381 16.2096 20.5381 16.1766 20.5381C16.0116 20.5381 15.8577 20.4502 15.7807 20.3073L13.8122 16.6699C13.5813 16.2414 13.1414 15.9776 12.6575 15.9776C12.4486 15.9776 12.2506 16.0216 12.0637 16.1205C11.5138 16.3952 11.2389 17.0106 11.3819 17.604L12.6575 22.8787C12.9215 23.9667 13.3833 24.9666 14.0432 25.8677L16.5395 29.2743C16.6055 29.3732 16.6385 29.4941 16.6165 29.604C16.5945 29.7249 16.5395 29.8238 16.4405 29.9007C16.3855 29.9667 16.2866 29.9886 16.1986 29.9886Z" fill="current"/>
<path d="M7.00514 14C3.14517 14 0 10.8571 0 7C0 3.14286 3.14517 0 7.00514 0C10.8651 0 14.0103 3.14286 14.0103 7C14.0103 10.8571 10.8651 14 7.00514 14Z" fill="current"/>
</svg>
