<svg width="30" height="30" viewBox="0 0 30 30" fill="none" xmlns="http://www.w3.org/2000/svg">
<path fill-rule="evenodd" clip-rule="evenodd" d="M22.491 11.3908C22.7699 11.3908 22.993 11.1677 22.993 10.8888V1.49498C22.993 0.669394 22.3236 0 21.4981 0H1.49494C0.669374 0 0 0.669394 0 1.49498V28.505C0 29.3306 0.669374 30 1.49494 30H21.4981C22.3236 30 22.993 29.3306 22.993 28.505V23.5069C22.993 23.228 22.7699 23.0048 22.491 23.0048C22.2121 23.0048 21.9889 23.228 21.9889 23.5069V28.505C21.9889 28.7839 21.7658 29.007 21.4869 29.007H1.49494C1.21603 29.007 0.992904 28.7839 0.992904 28.505V1.49498C0.992904 1.21606 1.21603 0.992935 1.49494 0.992935H21.4981C21.777 0.992935 22.0001 1.21606 22.0001 1.49498V10.8888C22.0001 11.1677 22.2232 11.3908 22.491 11.3908ZM29.9433 7.10676C29.8429 6.72743 29.5863 6.39274 29.2405 6.19192C28.8946 5.9911 28.4819 5.93532 28.1026 6.04689C27.7232 6.1473 27.3886 6.40389 27.1877 6.74975L26.9423 7.18485C26.708 7.05097 26.4068 7.12907 26.2618 7.36336L24.99 9.52773L24.5549 9.28229C24.4433 9.21535 24.2983 9.19303 24.1756 9.23766C24.0417 9.27113 23.9413 9.36038 23.8743 9.47195C23.7405 9.70624 23.8186 10.0186 24.064 10.1525L24.4991 10.3979L20.2486 17.7613L19.1999 20.5616L18.6978 21.4987C18.4078 22.0119 18.4413 22.6367 18.7759 23.1164L17.6492 24.4998L17.3368 23.7077C17.1918 23.3507 16.8682 23.1164 16.4889 23.0829C16.1096 23.0495 15.7526 23.2391 15.5518 23.5627L15.3733 23.8639L15.2059 21.8669C15.1613 21.3983 14.8043 21.0078 14.3246 20.952C13.856 20.8963 13.4098 21.1752 13.2536 21.6326L12.0264 25.3254C11.9372 25.582 12.0822 25.8721 12.3388 25.9502C12.3834 25.9725 12.4392 25.9837 12.495 25.9948L12.495 25.9948C12.7069 25.9948 12.8966 25.8609 12.9747 25.6601L14.2019 21.9673L14.3804 23.9978C14.4139 24.4329 14.7262 24.7899 15.1502 24.8903C15.5741 24.9907 16.0092 24.8011 16.2323 24.4329L16.422 24.1317L16.7344 24.9126C16.8682 25.2473 17.1583 25.4816 17.5153 25.5374C17.8723 25.5932 18.2181 25.4481 18.4413 25.1692L19.6015 23.6966C19.7354 23.73 19.8581 23.7523 19.992 23.7412C20.5275 23.7412 21.0295 23.4623 21.2972 23.0049L21.7993 22.1681L23.707 19.8475L28.0021 12.395L28.4372 12.6404C28.5488 12.7074 28.638 12.8189 28.6715 12.9416C28.705 13.0644 28.6827 13.2094 28.6269 13.321L26.6299 16.7906C26.5518 16.9022 26.5295 17.0473 26.563 17.1811C26.5965 17.315 26.6746 17.4266 26.7973 17.5047C26.9088 17.5716 27.0539 17.5939 27.1766 17.5605C27.3105 17.527 27.4109 17.4377 27.4778 17.3262L29.4748 13.8565C29.6756 13.5106 29.7314 13.0978 29.6198 12.7185C29.5194 12.3392 29.2628 12.0045 28.917 11.8037L28.4819 11.5582L29.7314 9.39386C29.8652 9.15957 29.7871 8.85834 29.5529 8.7133L29.7983 8.2782C29.9991 7.92119 30.0549 7.49724 29.9433 7.10676ZM20.4605 22.5028C20.3936 22.6255 20.2709 22.7148 20.137 22.7371C20.0031 22.7706 19.8581 22.7371 19.7465 22.659C19.5346 22.514 19.4676 22.2239 19.6015 22.0008L19.8469 21.5657L20.7171 22.0677L20.4605 22.5028ZM21.2415 21.2086L20.996 21.0636L20.2597 20.6285L20.9737 18.7319L22.5467 19.6467L21.2415 21.2086ZM23.1157 18.8323L21.3865 17.8282L25.3804 10.9L27.1096 11.9041L23.1157 18.8323ZM27.6117 11.0339L25.8825 10.0298L26.8865 8.30051L28.6157 9.3046L27.6117 11.0339ZM28.9281 7.75384L28.6827 8.18894L27.8125 7.6869L28.0579 7.25179C28.1249 7.14023 28.2364 7.05098 28.3591 7.01751C28.493 6.98404 28.6269 7.00635 28.7385 7.06213C28.85 7.12907 28.9393 7.24064 28.9727 7.36336C29.0174 7.49724 28.995 7.63112 28.9281 7.75384ZM4.4178 3.59238H18.5751C18.854 3.59238 19.0771 3.81551 19.0771 4.09442C19.0771 4.37334 18.854 4.59647 18.5751 4.59647H4.4178C4.1389 4.59647 3.91577 4.37334 3.91577 4.09442C3.91577 3.81551 4.1389 3.59238 4.4178 3.59238ZM18.5751 6.59356H4.4178C4.1389 6.59356 3.91577 6.8167 3.91577 7.09561C3.91577 7.37452 4.1389 7.59766 4.4178 7.59766H18.5751C18.854 7.59766 19.0771 7.37452 19.0771 7.09561C19.0771 6.8167 18.854 6.59356 18.5751 6.59356ZM4.4178 9.59461H18.5751C18.854 9.59461 19.0771 9.81774 19.0771 10.0967C19.0771 10.3756 18.854 10.5987 18.5751 10.5987H4.4178C4.1389 10.5987 3.91577 10.3756 3.91577 10.0967C3.91577 9.81774 4.1389 9.59461 4.4178 9.59461Z" fill="current"/>
</svg>
