<svg width="28" height="28" viewBox="0 0 28 28" fill="none" xmlns="http://www.w3.org/2000/svg">
<g clip-path="url(#clip0)">
<path d="M12.1665 27.9558C12.2569 27.9856 12.3495 28.0001 12.4411 28.0001C12.7128 28.0001 12.9755 27.8733 13.1437 27.6467L24.5955 12.2249C24.7926 11.9594 24.8232 11.6055 24.6747 11.3101C24.5261 11.0146 24.2237 10.8282 23.893 10.8282H16.1054V0.875018C16.1054 0.495377 15.8606 0.159049 15.4994 0.0423461C15.1381 -0.0743024 14.7429 0.0551976 14.5207 0.363143L3.39734 15.785C3.20517 16.0514 3.17842 16.403 3.32805 16.6954C3.47767 16.9878 3.77851 17.1718 4.10702 17.1718H11.5663V27.125C11.5663 27.5024 11.8082 27.8373 12.1665 27.9558ZM5.81699 15.4218L14.3554 3.58391V11.7033C14.3554 12.1865 14.7472 12.5783 15.2304 12.5783H22.1533L13.3163 24.479V16.2968C13.3163 15.8136 12.9245 15.4218 12.4413 15.4218H5.81699Z" fill="#093254"/>
</g>
<defs>
<clipPath id="clip0">
<rect width="28" height="28" fill="white"/>
</clipPath>
</defs>
</svg>
