<svg width="24" height="24" viewBox="0 0 24 24" fill="none" xmlns="http://www.w3.org/2000/svg">
<path d="M20.963 23.9998H4.02326C3.61853 23.9998 3.29053 23.6838 3.29053 23.2939V5.65411C3.29053 5.26422 3.61853 4.94824 4.02326 4.94824C4.42798 4.94824 4.75599 5.26422 4.75599 5.65411V22.588H20.2303V5.65411C20.2303 5.26422 20.5585 4.94824 20.9631 4.94824C21.3676 4.94824 21.6958 5.26422 21.6958 5.65411V23.2939C21.6957 23.6838 21.3676 23.9998 20.963 23.9998Z" fill="#093254"/>
<path d="M23.605 5.8844H1.07038C0.665651 5.8844 0.337646 5.56842 0.337646 5.17853C0.337646 4.78864 0.665651 4.47266 1.07038 4.47266H23.6049C24.0094 4.47266 24.3376 4.78864 24.3376 5.17853C24.3377 5.56842 24.0095 5.8844 23.605 5.8844Z" fill="#093254"/>
<path d="M14.8914 5.64812C14.4869 5.64812 14.1586 5.33214 14.1586 4.94225V2.9395C14.1586 2.09706 13.4473 1.41174 12.573 1.41174H12.4131C11.5386 1.41174 10.827 2.09701 10.827 2.9395V4.94225C10.827 5.33214 10.499 5.64812 10.0943 5.64812C9.68958 5.64812 9.36157 5.33214 9.36157 4.94225V2.9395C9.36146 1.31875 10.7304 0 12.413 0H12.5729C14.2552 0 15.6241 1.31875 15.6241 2.9395V4.94225C15.6241 5.33214 15.2959 5.64812 14.8914 5.64812Z" fill="#093254"/>
<path d="M8.29686 19.2024C7.97305 19.2024 7.71069 18.9496 7.71069 18.6377V9.83518C7.71069 9.52325 7.97305 9.27051 8.29686 9.27051C8.62066 9.27051 8.88302 9.52325 8.88302 9.83518V18.6377C8.88302 18.9496 8.62066 19.2024 8.29686 19.2024Z" fill="#093254"/>
<path d="M16.7668 19.2024C16.4432 19.2024 16.1807 18.9496 16.1807 18.6377V9.83518C16.1807 9.52325 16.4432 9.27051 16.7668 9.27051C17.0904 9.27051 17.353 9.52325 17.353 9.83518V18.6377C17.353 18.9496 17.0905 19.2024 16.7668 19.2024Z" fill="#093254"/>
<path d="M12.4929 19.2024C12.1693 19.2024 11.9067 18.9496 11.9067 18.6377V9.83518C11.9067 9.52325 12.1693 9.27051 12.4929 9.27051C12.8165 9.27051 13.0791 9.52325 13.0791 9.83518V18.6377C13.0791 18.9496 12.8165 19.2024 12.4929 19.2024Z" fill="#093254"/>
</svg>
